<?xml version="1.0" encoding="utf-8"?>
<!-- Generator: Adobe Illustrator 24.0.0, SVG Export Plug-In . SVG Version: 6.00 Build 0)  -->
<svg version="1.1" id="Calque_1" xmlns="http://www.w3.org/2000/svg" xmlns:xlink="http://www.w3.org/1999/xlink" x="0px" y="0px"
	 viewBox="0 0 50 50" style="enable-background:new 0 0 50 50;" xml:space="preserve">
<style type="text/css">
	.st0{fill:#FFFFFF;}
	.st1{fill:#1978B6;}
	.st2{fill:#35A9E0;}
	.st3{fill:#225FAD;}
	.st4{fill:#2EBAA0;}
	.st5{fill:#28874E;}
	.st6{fill:#2B9A97;}
	.st7{fill:#33A55E;}
	.st8{fill:#EFEB63;}
	.st9{fill:#82C564;}
	.st10{fill:#E8262E;}
	.st11{fill:#F1683C;}
	.st12{fill:#FCBD2A;}
	.st13{fill:#F89D5F;}
	.st14{fill:#EE2E7E;}
	.st15{fill:#762D8A;}
	.st16{fill:#562B7B;}
	.st17{fill:#DA5F75;}
	.st18{fill:#EF4137;}
	.st19{fill:#F0522D;}
	.st20{fill:#EF3830;}
	.st21{fill:#E5499A;}
	.st22{fill:#B53B88;}
	.st23{fill:#6D2A84;}
	.st24{fill:#D62228;}
	.st25{fill:#21ACDB;}
	.st26{fill:#2699BC;}
	.st27{fill:#1E4583;}
	.st28{fill:#2CAA9A;}
	.st29{fill:#2EB56D;}
	.st30{fill:#E7D555;}
	.st31{fill:#68BF64;}
	.st32{fill:#FAA82D;}
	.st33{fill:#F6913F;}
</style>
<g>
	<g>
		<path class="st0" d="M37.4,18.6c0.1,6.6-5.4,12-11.9,12.2c-7,0.2-13.4-5.6-12.8-13.3C13,11.7,18,5.7,25.5,6
			C31.7,6.1,37.6,11.4,37.4,18.6z"/>
		<path class="st1" d="M40.7,13.8c0-0.2-0.2-0.9-0.3-1.1c-0.4-1.6-1-3-1.8-4.4L25,18.5L40.7,13.8L40.7,13.8z"/>
		<path class="st2" d="M38.5,8.3c-0.9-1.5-3.1-4.2-4.7-5L25,18.5L38.5,8.3L38.5,8.3z"/>
		<path class="st3" d="M25,18.5l8.8-15.1c-1.4-0.9-3-1.7-4.7-2.2l0,0l0,0c-1.1-0.3-2.8-0.5-4-0.5l0,0L25,18.5L25,18.5z"/>
		<path class="st4" d="M40.8,18.4c0-0.4,0.1-2.6-0.2-4.5L25,18.5l14.9,4.3C40.4,20.9,40.7,19.6,40.8,18.4L40.8,18.4z"/>
		<polygon class="st5" points="25,18.5 35.1,33.5 36.6,30.6 37.6,28.6 25,18.5 		"/>
		<path class="st6" d="M37.6,28.6c0.5-1,0.8-1.8,1.1-2.5c0.6-1.5,0.7-2,1.2-3.4L25,18.5L37.6,28.6L37.6,28.6z"/>
		<path class="st7" d="M30.2,41.9c2.1-3.3,3.8-6.5,5.7-9.9L25,18.5L30.2,41.9L30.2,41.9z"/>
		<path class="st8" d="M25,49.4c1.7-2.4,3.6-5,5.1-7.5L25,18.5L25,49.4L25,49.4z"/>
		<polygon class="st9" points="30.2,41.9 33.8,35.8 25,18.5 30.2,41.9 		"/>
		<polygon class="st10" points="25,18.5 14.9,33.5 12.5,28.7 25,18.5 		"/>
		<path class="st11" d="M19.9,41.9c-1.4-2.2-2.6-4.1-3.6-6c-0.8-1.4-1.5-2.9-2.1-3.9L25,18.5L19.9,41.9L19.9,41.9z"/>
		<path class="st12" d="M25,49.4c-1.8-2.4-3.5-5-5.1-7.5L25,18.5V49.4L25,49.4z"/>
		<polygon class="st13" points="19.9,41.9 18.8,40.2 17.8,38.6 17,37.1 16.3,35.9 25,18.5 19.9,41.9 		"/>
		<path class="st14" d="M9.4,13.8c0.4-2.2,1-3.5,2.1-5.5L25,18.5L9.4,13.8L9.4,13.8z"/>
		<path class="st15" d="M11.5,8.3c0.8-1.3,2.9-3.9,4.7-5l8.9,15.2L11.5,8.3L11.5,8.3z"/>
		<path class="st16" d="M25,18.5L16.2,3.3c1.4-0.9,3-1.7,4.7-2.2l0,0l0,0c1.1-0.3,2.8-0.5,4.1-0.6l0,0L25,18.5L25,18.5L25,18.5z"/>
		<path class="st17" d="M9.4,13.8L25,18.5l-15,3.9C9.1,20.1,8.9,15.8,9.4,13.8L9.4,13.8z"/>
		<path class="st18" d="M12.5,28.7c-0.9-1.9-1.8-4.2-2.5-6.3l15-3.8L12.5,28.7L12.5,28.7z"/>
		<path class="st19" d="M25,18.5L14.2,32.1c0.3,0,3.6-0.7,4.5-0.9L25,18.5L25,18.5z"/>
		<path class="st20" d="M25,18.5l-9.6,7.8c-0.4,2-1,4.5-1.3,5.8L25,18.5L25,18.5z"/>
		<polygon class="st21" points="11.5,8.3 25,18.5 14.2,15.3 11.5,8.3 		"/>
		<path class="st22" d="M25,18.5l-5.1-8.8c-0.7-0.1-6.8-0.9-8.4-1.3L25,18.5L25,18.5z"/>
		<polygon class="st23" points="25,0.6 25,18.5 19.9,9.6 25,0.6 		"/>
		<polygon class="st14" points="14.2,15.3 25,18.5 10,22.3 14.2,15.3 		"/>
		<polygon class="st24" points="15.4,26.2 25,18.5 10,22.3 15.4,26.2 		"/>
		<polygon class="st25" points="38.5,8.3 25,18.5 36.5,15 38.5,8.3 		"/>
		<path class="st26" d="M38.5,8.3c-3.7,0.5-8.5,1.4-8.5,1.4l-5,8.7L38.5,8.3L38.5,8.3z"/>
		<polygon class="st27" points="25,0.6 25,18.5 30.1,9.8 25,0.6 		"/>
		<polygon class="st28" points="36.5,15 25,18.5 39.8,22.8 36.5,15 		"/>
		<polygon class="st7" points="35.9,32 34.7,26.3 25,18.5 35.9,32 		"/>
		<polygon class="st4" points="39.8,22.8 34.7,26.3 25.1,18.5 39.8,22.8 		"/>
		<polygon class="st29" points="35.9,32 25,18.5 31.6,31.5 35.9,32 		"/>
		<path class="st30" d="M25,37.2c0.8,0.7,4.2,4,5.1,4.7L25,18.5V37.2L25,37.2z"/>
		<polygon class="st31" points="30.2,41.9 31.6,31.5 25,18.5 30.2,41.9 		"/>
		<path class="st32" d="M25,37.2c-1.6,1.5-4.4,3.9-5.1,4.7L25,18.5V37.2L25,37.2z"/>
		<polygon class="st33" points="19.9,41.9 18.6,31.2 25,18.5 19.9,41.9 		"/>
	</g>
	<g>
		<g>
			<path class="st0" d="M16.6,28.9h-0.5v1.8c0,0,0,0.1-0.1,0.1h-0.3c0,0-0.1,0-0.1-0.1v-1.8h-0.5c0,0-0.1,0-0.1-0.1v-0.2
				c0,0,0-0.1,0.1-0.1h1.4c0,0,0.1,0,0.1,0.1L16.6,28.9C16.7,28.9,16.6,28.9,16.6,28.9L16.6,28.9z"/>
			<path class="st0" d="M18.1,30.8h-0.3c0,0-0.1,0-0.1-0.1v-0.1c-0.1,0.1-0.3,0.1-0.4,0.1c-0.1,0-0.3,0-0.3-0.1
				c-0.1-0.1-0.1-0.3-0.1-0.5l0-1c0,0,0-0.1,0.1-0.1h0.3c0,0,0.1,0,0.1,0.1v1c0,0.1,0,0.2,0.1,0.3c0,0,0.1,0.1,0.2,0.1
				c0.1,0,0.2-0.1,0.3-0.1l0-1.2c0,0,0-0.1,0.1-0.1h0.3c0,0,0.1,0,0.1,0.1v1.6C18.1,30.8,18.1,30.8,18.1,30.8L18.1,30.8z"/>
			<path class="st0" d="M19.7,30.8h-0.3c0,0-0.1,0-0.1-0.1v-1c0-0.3,0-0.3-0.2-0.3c-0.1,0-0.2,0-0.3,0.1v1.2c0,0,0,0.1-0.1,0.1h-0.3
				c0,0-0.1,0-0.1-0.1v-1.6c0,0,0-0.1,0.1-0.1h0.2c0,0,0.1,0,0.1,0.1v0.1c0.2-0.1,0.3-0.1,0.4-0.1c0.4,0,0.5,0.3,0.5,0.7V30.8
				C19.7,30.8,19.7,30.8,19.7,30.8L19.7,30.8z"/>
			<path class="st0" d="M20.3,28.9h-0.3c0,0-0.1,0-0.1-0.1v-0.3c0,0,0-0.1,0.1-0.1h0.3c0,0,0.1,0,0.1,0.1L20.3,28.9
				C20.4,28.9,20.4,28.9,20.3,28.9L20.3,28.9L20.3,28.9z M20.3,30.8h-0.3c0,0-0.1,0-0.1-0.1v-1.6c0,0,0-0.1,0.1-0.1h0.3
				c0,0,0.1,0,0.1,0.1L20.3,30.8C20.4,30.8,20.4,30.8,20.3,30.8L20.3,30.8z"/>
			<path class="st0" d="M21.2,30.8c-0.1,0-0.3,0-0.5-0.1c0,0-0.1,0-0.1-0.1v-0.2c0,0,0,0,0,0l0,0c0.1,0,0.4,0,0.5,0
				c0.2,0,0.2-0.1,0.2-0.1c0-0.1,0-0.1-0.1-0.2l-0.4-0.3c-0.1-0.1-0.2-0.2-0.2-0.4c0-0.3,0.2-0.4,0.5-0.4c0.2,0,0.3,0,0.5,0.1
				c0,0,0,0,0,0.1v0.2c0,0,0,0.1,0,0.1l0,0c-0.1,0-0.3,0-0.5,0c-0.1,0-0.2,0-0.2,0.1c0,0,0,0.1,0.1,0.1l0.4,0.2
				c0.2,0.2,0.3,0.3,0.3,0.5C21.7,30.6,21.6,30.8,21.2,30.8L21.2,30.8z"/>
			<path class="st0" d="M22.3,28.9H22c0,0-0.1,0-0.1-0.1v-0.3c0,0,0-0.1,0.1-0.1h0.3c0,0,0.1,0,0.1,0.1L22.3,28.9
				C22.4,28.9,22.3,28.9,22.3,28.9L22.3,28.9L22.3,28.9z M22.3,30.8H22c0,0-0.1,0-0.1-0.1v-1.6c0,0,0-0.1,0.1-0.1h0.3
				c0,0,0.1,0,0.1,0.1L22.3,30.8C22.3,30.8,22.3,30.8,22.3,30.8L22.3,30.8z"/>
			<path class="st0" d="M23.9,30.1H23l0,0c0,0.2,0.1,0.4,0.3,0.4c0.2,0,0.4,0,0.5,0l0,0c0,0,0,0,0,0v0.2c0,0,0,0.1-0.1,0.1
				c-0.2,0-0.3,0.1-0.5,0.1c-0.3,0-0.7-0.2-0.7-0.8v-0.2c0-0.5,0.2-0.8,0.7-0.8c0.4,0,0.6,0.3,0.6,0.8V30.1
				C23.9,30.1,23.9,30.1,23.9,30.1L23.9,30.1L23.9,30.1z M23.6,29.8c0-0.2-0.1-0.4-0.3-0.4c-0.2,0-0.3,0.1-0.3,0.4l0,0H23.6
				L23.6,29.8L23.6,29.8z"/>
			<path class="st0" d="M26.1,28.9h-0.5v1.8c0,0,0,0.1-0.1,0.1h-0.3c0,0-0.1,0-0.1-0.1v-1.8h-0.5c0,0-0.1,0-0.1-0.1v-0.2
				c0,0,0-0.1,0.1-0.1h1.4c0,0,0.1,0,0.1,0.1L26.1,28.9C26.2,28.9,26.2,28.9,26.1,28.9L26.1,28.9z"/>
			<path class="st0" d="M27.6,30.1h-0.9l0,0c0,0.2,0.1,0.4,0.3,0.4c0.2,0,0.4,0,0.5,0h0c0,0,0,0,0,0v0.2c0,0,0,0.1-0.1,0.1
				c-0.2,0-0.3,0.1-0.5,0.1c-0.3,0-0.7-0.2-0.7-0.8v-0.2c0-0.5,0.2-0.8,0.7-0.8c0.4,0,0.6,0.3,0.6,0.8V30.1
				C27.6,30.1,27.6,30.1,27.6,30.1L27.6,30.1L27.6,30.1z M27.3,29.8c0-0.2-0.1-0.4-0.3-0.4c-0.2,0-0.3,0.1-0.3,0.4l0,0H27.3
				L27.3,29.8L27.3,29.8z"/>
			<path class="st0" d="M28.2,30.8h-0.3c0,0-0.1,0-0.1-0.1v-2.2c0,0,0-0.1,0.1-0.1l0.3,0c0,0,0.1,0,0.1,0.1L28.2,30.8
				C28.3,30.8,28.2,30.8,28.2,30.8L28.2,30.8z"/>
			<path class="st0" d="M29.8,30.1h-0.9l0,0c0,0.2,0.1,0.4,0.3,0.4c0.2,0,0.4,0,0.5,0l0,0c0,0,0.1,0,0.1,0v0.2c0,0,0,0.1-0.1,0.1
				c-0.2,0-0.3,0.1-0.5,0.1c-0.3,0-0.7-0.2-0.7-0.8l0-0.2c0-0.5,0.2-0.8,0.7-0.8c0.4,0,0.6,0.3,0.6,0.8L29.8,30.1
				C29.8,30.1,29.8,30.1,29.8,30.1L29.8,30.1L29.8,30.1z M29.5,29.8c0-0.2-0.1-0.4-0.3-0.4c-0.2,0-0.3,0.1-0.3,0.4l0,0H29.5
				L29.5,29.8L29.5,29.8z"/>
			<path class="st0" d="M31,30.8c-0.1,0-0.2,0-0.4,0c-0.4,0-0.6-0.2-0.6-0.7v-0.3c0-0.5,0.3-0.7,0.6-0.7c0.2,0,0.3,0,0.4,0
				c0,0,0.1,0,0.1,0.1v0.2c0,0,0,0,0,0v0c-0.1,0-0.2,0-0.4,0c-0.1,0-0.3,0.1-0.3,0.4V30c0,0.3,0.1,0.4,0.3,0.4c0.2,0,0.2,0,0.4,0v0
				c0,0,0,0,0,0v0.2C31.1,30.8,31.1,30.8,31,30.8L31,30.8z"/>
			<path class="st0" d="M32,30.8c-0.4,0-0.7-0.3-0.7-0.7v-0.2c0-0.4,0.2-0.7,0.7-0.7c0.4,0,0.6,0.3,0.6,0.7v0.2
				C32.6,30.5,32.4,30.8,32,30.8L32,30.8L32,30.8z M32.3,29.8c0-0.2-0.1-0.4-0.3-0.4s-0.3,0.2-0.3,0.4v0.2c0,0.2,0.1,0.4,0.3,0.4
				s0.3-0.2,0.3-0.4V29.8L32.3,29.8z"/>
			<path class="st0" d="M34.8,30.8h-0.3c0,0-0.1,0-0.1-0.1v-1.1c0-0.2,0-0.3-0.2-0.3c-0.1,0-0.2,0-0.3,0.1c0,0.1,0,0.1,0,0.2v1.1
				c0,0,0,0.1-0.1,0.1h-0.3c0,0-0.1,0-0.1-0.1v-1.1c0-0.2,0-0.3-0.2-0.3c-0.1,0-0.1,0-0.3,0.1v1.2c0,0,0,0.1-0.1,0.1l-0.3,0
				c0,0-0.1,0-0.1-0.1v-1.5c0,0,0-0.1,0.1-0.1H33c0,0,0.1,0,0.1,0.1v0.1c0.1-0.1,0.2-0.1,0.4-0.1c0.2,0,0.3,0.1,0.3,0.1
				c0.1-0.1,0.3-0.1,0.4-0.1c0.4,0,0.5,0.3,0.5,0.6L34.8,30.8C34.8,30.8,34.8,30.8,34.8,30.8L34.8,30.8z"/>
		</g>
		<g>
			<path class="st0" d="M12.9,15.1v1.4h3.8v8c0,1.6,1,2.1,2.1,2.1h1.6V16.6h1.9c1.1,0,2.1-1,2.1-2v-1.4l-9.4,0
				C13.6,13.2,12.9,14.3,12.9,15.1L12.9,15.1z"/>
			<path class="st0" d="M27.7,13.2c-1.3,0-2.1,1-2.1,2v1.4h3.8v8c0,1.6,1,2.1,2.1,2.1h1.6V16.6H35c1.1,0,2.1-1,2.1-2v-1.4L27.7,13.2
				L27.7,13.2L27.7,13.2z"/>
		</g>
	</g>
</g>
</svg>
