<svg width="26" height="22" viewBox="0 0 26 22" fill="none" xmlns="http://www.w3.org/2000/svg">
<g clip-path="url(#clip0_11_52)">
<path d="M9.87734 0.867249C10.216 0.992014 10.519 1.1346 10.7507 1.41978C11.125 1.90102 11.1785 2.57832 10.8398 3.14867C10.5368 3.66556 9.89516 3.95074 9.27133 3.8438C8.68315 3.73685 8.18409 3.23779 8.07715 2.66744C7.93456 1.90102 8.3445 1.2059 9.0931 0.938543C9.14657 0.920719 9.18221 0.902896 9.23568 0.885072C9.44957 0.867249 9.66345 0.867249 9.87734 0.867249Z" fill="#15A5DF"/>
<path d="M17.9514 0.86725C18.2544 0.974192 18.5396 1.11678 18.7713 1.38414C19.1991 1.8832 19.2525 2.61397 18.8961 3.1665C18.5574 3.70121 17.8623 3.98639 17.2563 3.80815C16.579 3.62991 16.1334 3.05956 16.1156 2.38226C16.0978 1.74061 16.5255 1.1346 17.1315 0.920721C17.185 0.902897 17.2563 0.86725 17.3098 0.849426C17.5237 0.86725 17.7375 0.86725 17.9514 0.86725Z" fill="#15A5DF"/>
<path d="M13.4421 7.37288C13.4955 6.89164 13.5312 6.44605 13.5847 6.00046C13.6916 5.16275 14.2263 4.5211 14.9927 4.32504C15.171 4.28939 15.3492 4.27157 15.5274 4.27157C16.9177 4.27157 18.3079 4.27157 19.6982 4.27157C20.6785 4.27157 21.3558 4.78845 21.6231 5.69746C21.6766 5.85787 21.6766 6.03611 21.6766 6.21434C21.6766 7.97888 21.6766 9.76125 21.6766 11.5258C21.6766 11.9892 21.3736 12.3279 20.9458 12.3635C20.4824 12.3813 20.1438 12.114 20.0903 11.6149C20.0725 11.508 20.0725 11.3832 20.0725 11.2763C20.0725 9.90384 20.0725 8.54924 20.0725 7.17682C20.0725 7.12335 20.0725 7.0877 20.0725 7.03423C20.0546 6.92729 20.1259 6.76688 19.9299 6.76688C19.7516 6.76688 19.8051 6.92729 19.8051 7.01641C19.8051 7.0877 19.8051 7.14117 19.8051 7.21247C19.8051 11.4545 19.8051 15.6965 19.8051 19.9207C19.8051 20.1346 19.7873 20.3485 19.6982 20.5445C19.4843 20.9723 19.0209 21.1862 18.5753 21.0971C18.094 20.9901 17.7732 20.598 17.7732 20.099C17.7732 17.5858 17.7732 15.0905 17.7732 12.5774C17.7732 12.5061 17.7732 12.4526 17.7732 12.3813C17.7732 12.2744 17.7376 12.2031 17.6128 12.2031C17.488 12.2031 17.488 12.2922 17.488 12.3813C17.488 12.4348 17.488 12.5061 17.488 12.5596C17.488 15.037 17.488 17.5145 17.488 19.992C17.488 20.4554 17.3098 20.7941 16.8999 21.008C16.2582 21.3288 15.474 20.8476 15.4561 20.1346C15.4561 20.0455 15.4561 19.9564 15.4561 19.8494C15.4561 15.6074 15.4561 11.3654 15.4561 7.12335C15.4561 7.05205 15.4561 6.99858 15.4561 6.92729C15.4561 6.82035 15.4383 6.74905 15.3135 6.74905C15.2066 6.74905 15.171 6.82035 15.171 6.90946C15.0462 8.12147 14.9392 9.33348 14.8145 10.5455C14.7788 10.9198 14.7432 11.2763 14.7075 11.6506C14.6719 11.9714 14.3867 12.2744 14.0659 12.3279C13.6916 12.3813 13.3708 12.2209 13.2104 11.9001C13.0678 11.6149 13.0143 11.2941 12.9074 10.9911C12.4796 9.63648 12.0696 8.26406 11.6597 6.90946C11.6419 6.87382 11.6419 6.83817 11.6241 6.80252C11.5706 6.69558 11.4815 6.69558 11.3923 6.7134C11.2854 6.74905 11.3567 6.83817 11.3745 6.89164C11.8023 8.31753 12.2479 9.74342 12.6756 11.1693C12.9786 12.1674 13.2817 13.1656 13.6025 14.1815C13.6916 14.4667 13.6559 14.5023 13.3529 14.5023C12.943 14.5023 12.5152 14.5023 12.1053 14.5023C11.9092 14.5023 11.8558 14.5736 11.8558 14.7519C11.8558 16.4808 11.8558 18.2097 11.8558 19.9564C11.8558 20.3307 11.7666 20.6693 11.4458 20.901C11.125 21.1506 10.7863 21.1862 10.4299 21.0258C10.0734 20.8654 9.85951 20.598 9.82386 20.1881C9.80604 20.0277 9.80604 19.8673 9.80604 19.689C9.80604 18.0671 9.80604 16.4273 9.80604 14.8053C9.80604 14.734 9.80604 14.6627 9.80604 14.5915C9.80604 14.5202 9.75257 14.5023 9.68128 14.5023C9.60998 14.5023 9.55651 14.5202 9.55651 14.5915C9.55651 14.6627 9.55651 14.734 9.55651 14.8053C9.55651 16.5342 9.55651 18.2453 9.55651 19.9742C9.55651 20.3307 9.46739 20.6337 9.18221 20.8654C8.86139 21.1327 8.48709 21.1862 8.1128 21.008C7.7385 20.8297 7.52461 20.5267 7.52461 20.099C7.52461 18.9582 7.52461 17.8354 7.52461 16.6946C7.52461 16.0352 7.52461 15.3757 7.52461 14.7162C7.52461 14.5558 7.47114 14.4845 7.29291 14.4845C6.86514 14.4845 6.43737 14.4845 6.00961 14.4845C5.72443 14.4845 5.68878 14.4489 5.7779 14.1815C6.3839 12.1674 7.00773 10.1534 7.63156 8.1393C7.75632 7.72935 7.88109 7.33723 8.00585 6.92729C8.02368 6.85599 8.11279 6.74905 7.98803 6.7134C7.86326 6.67776 7.77415 6.7134 7.7385 6.85599C7.63156 7.21247 7.52462 7.56894 7.41767 7.90759C7.15032 8.76312 6.90079 9.61866 6.63343 10.4742C6.50867 10.8841 6.20567 11.098 5.81355 11.0802C5.4749 11.0624 5.17189 10.8307 5.08278 10.5098C4.94019 10.3673 4.94019 10.2068 4.99366 10.0286C5.42142 8.65618 5.83137 7.26594 6.25914 5.89352C6.3839 5.51922 6.54431 5.18057 6.79385 4.85975C7.11467 4.4498 7.50679 4.25374 8.02368 4.23592C9.0931 4.23592 10.1625 4.21809 11.2319 4.23592C12.0518 4.23592 12.5152 4.73498 12.8182 5.4301C13.0499 5.98264 13.1747 6.55299 13.3708 7.12335C13.3886 7.21247 13.4064 7.28376 13.4421 7.37288Z" fill="#15A5DF"/>
</g>
<defs>
<clipPath id="clip0_11_52">
<rect x="0.730774" width="25.1731" height="22" rx="11" fill="white"/>
</clipPath>
</defs>
</svg>
