<svg width="26" height="21" viewBox="0 0 26 21" fill="none" xmlns="http://www.w3.org/2000/svg">
<path d="M25.3467 12.7578C25.2267 12.9412 25.1218 13.1509 24.8968 13.282C24.312 13.649 23.5621 13.5179 23.1572 12.9412C22.8123 12.4432 22.4824 11.9321 22.1374 11.4209C21.9425 11.1326 21.7625 10.8573 21.5526 10.5428C21.4926 10.6476 21.5076 10.7263 21.5076 10.818C21.5076 13.5703 21.5076 16.3227 21.5076 19.0881C21.5076 19.3895 21.4626 19.691 21.2227 19.94C20.8777 20.307 20.3528 20.438 19.858 20.2939C19.3631 20.1497 19.0331 19.7565 19.0331 19.2847C19.0181 18.5507 19.0331 17.8299 19.0331 17.0959C19.0331 16.1392 19.0331 15.1824 19.0331 14.2257C19.0331 14.1732 19.0331 14.1077 19.0331 14.0553C19.0331 13.7276 18.8532 13.531 18.5683 13.531C18.2983 13.531 18.1333 13.7276 18.1333 14.0553C18.1333 15.7984 18.1333 17.5284 18.1333 19.2716C18.1333 19.822 17.7434 20.2414 17.1436 20.3463C16.4087 20.4905 15.7039 20.0186 15.6439 19.3502C15.6439 19.2585 15.6439 19.1667 15.6439 19.075C15.6439 16.3358 15.6439 13.6097 15.6439 10.8704C15.6439 10.7918 15.6439 10.7001 15.6439 10.5952C15.5389 10.6476 15.5089 10.7263 15.464 10.7787C14.9841 11.4996 14.5042 12.2204 14.0093 12.9412C13.6944 13.4 13.2145 13.5835 12.6896 13.4655C12.4046 13.4 12.1947 13.2558 12.0297 13.0461C11.5348 12.4301 11.1299 11.7486 10.68 11.0933C10.4251 10.7263 10.2001 10.3724 9.9302 9.96611C9.88521 10.5821 9.9452 11.1457 10.0352 11.7093C10.2601 13.0854 10.4851 14.4747 10.695 15.8508C10.77 16.3227 10.5901 16.5848 10.0802 16.7421C9.9152 16.7945 9.9152 16.8731 9.9152 16.9911C9.9152 17.9347 9.9152 18.8653 9.9152 19.8089C9.9152 20.4643 9.36033 20.9099 8.62549 20.8968C7.95065 20.8837 7.44076 20.3987 7.44076 19.7565C7.44076 18.8522 7.44076 17.9478 7.44076 17.0566C7.44076 16.7814 7.44076 16.7814 7.11084 16.7814C6.54096 16.7814 6.54096 16.7814 6.54096 17.2794C6.54096 18.1444 6.54096 18.9963 6.54096 19.8614C6.54096 20.2939 6.30102 20.6215 5.86612 20.805C5.43121 20.9885 5.01131 20.9623 4.6064 20.7264C4.20149 20.4774 4.06652 20.1104 4.06652 19.691C4.06652 18.8129 4.06652 17.9478 4.06652 17.0697C4.06652 16.8862 4.03653 16.7945 3.81158 16.729C3.43666 16.6241 3.22671 16.2965 3.2867 15.9426C3.48165 14.6713 3.69161 13.4131 3.90156 12.1418C4.02153 11.4471 4.14151 10.7394 4.05153 9.97922C3.97654 10.071 3.93155 10.1496 3.88656 10.2151C3.40667 10.9491 2.91178 11.6699 2.43189 12.4039C2.10197 12.9019 1.54709 13.1247 1.00721 12.9675C0.272378 12.7578 -0.0425506 12.0762 0.332365 11.4733C0.602304 11.0408 0.88724 10.6345 1.17218 10.2151C2.19195 8.65549 3.21172 7.13516 4.23148 5.58861C4.53142 5.12989 4.93633 4.90709 5.55119 4.92019C6.52597 4.94641 7.50075 4.9333 8.47553 4.92019C9.0604 4.90709 9.46531 5.12989 9.75024 5.57551C10.77 7.10894 11.7898 8.64238 12.8095 10.1758C12.8545 10.2545 12.9145 10.32 12.9895 10.4248C13.2295 10.071 13.4544 9.74331 13.6794 9.41565C14.4292 8.30162 15.179 7.17448 15.9138 6.06044C16.1988 5.62793 16.6037 5.41823 17.1736 5.41823C18.1184 5.43134 19.0781 5.43134 20.0229 5.41823C20.5928 5.40513 20.9977 5.62793 21.2826 6.06044C22.5723 8.00017 23.8621 9.9268 25.1518 11.8665C25.2267 11.9714 25.2867 12.1024 25.3467 12.2073C25.3467 12.3908 25.3467 12.5743 25.3467 12.7578Z" fill="#15A5DF"/>
<path d="M4.38149 2.3513C4.17154 2.57411 4.11155 2.82313 4.09655 3.09836C4.06656 3.34738 4.12655 3.5964 4.15654 3.84542C4.18653 4.19929 3.96158 4.46142 3.55668 4.50073C3.34672 4.51384 3.13677 4.54005 2.92682 4.54005C2.5519 4.54005 2.26697 4.35657 2.23697 4.02891C2.17699 3.50466 2.17699 2.9804 2.29696 2.45615C2.46192 1.66978 3.25674 1.32901 3.84161 1.22416C3.97658 1.19795 4.12655 1.15863 4.24652 1.19795C4.60644 1.28969 4.7864 1.13242 4.99635 0.896505C6.1211 -0.361699 8.26561 -0.269955 9.25539 1.06689C9.36037 1.21106 9.48034 1.23727 9.6453 1.22416C10.3351 1.14552 10.92 1.34212 11.4149 1.74841C11.7898 2.04986 11.8648 2.46926 11.8948 2.88866C11.9248 3.22942 11.9098 3.57019 11.8948 3.91095C11.8798 4.34346 11.6099 4.56627 11.115 4.55316C10.905 4.55316 10.6951 4.52695 10.4851 4.50073C10.1402 4.44831 9.91524 4.18618 9.94523 3.85853C9.99022 3.50466 10.0652 3.16389 9.96023 2.81002C9.91524 2.66585 9.87025 2.50858 9.70529 2.36441C9.61531 3.15079 9.2254 3.75368 8.50556 4.19929C7.99567 4.50073 7.4408 4.60559 6.82594 4.57937C5.61121 4.52695 4.74141 3.74057 4.38149 2.3513Z" fill="#15A5DF"/>
<path d="M21.1776 2.7707C21.1776 4.0289 19.9779 5.0774 18.5382 5.0774C17.1135 5.0774 15.9138 4.0289 15.8988 2.7838C15.8988 1.5256 17.0985 0.463989 18.5382 0.463989C19.9779 0.477096 21.1776 1.5256 21.1776 2.7707Z" fill="#15A5DF"/>
</svg>
