<?xml version="1.0" encoding="utf-8"?>
<!-- Generator: Adobe Illustrator 24.0.0, SVG Export Plug-In . SVG Version: 6.00 Build 0)  -->
<svg version="1.1" id="Calque_1" xmlns="http://www.w3.org/2000/svg" xmlns:xlink="http://www.w3.org/1999/xlink" x="0px" y="0px"
    viewBox="0 0 244.6 482.1" style="enable-background:new 0 0 244.6 482.1;" xml:space="preserve">

    <path id="Mahdia" fill="#FFFFFF" stroke="#15A5DF" stroke-width="0.7279" stroke-miterlimit="1.5748"  d="M203.3,130.5l-0.7-2.4l-3.4,0.7l-1.7,1l-2.4,2.8l-1.4,1.7l-6.9,0.3l-2.1-1.4
	c-1.1-0.1-3.5-0.3-3.8-0.3s-1-0.9-1.4-1.4l-0.7,3.4l-0.7,0.3l-1,1.7l-2.4,0.7l-2.4-1.4v-1.7l-0.3-0.7l-1.4-1.4l-1-0.7l-1.4,0.3
	l-0.7,1l-3.1-2.4l-1-2.4v-1.7h-0.7l-0.7,0.7l-1,0.7l-1,0.3l-0.3,2.1l0.7,0.3l0.3,0.7l0.3,1.4l-0.7,1.4l-1,0.3l-0.3,2.1l-1,1.7
	l-1.7,3.4l0.7,1l1,2.1l-0.3,1.4v3.1l2.1,2.8l-0.3,1.7l1.4,1.7l4.5,0.7l2.1,1.7l3.4,0.3l1-0.7l2.8-1l3.8-2.1v-2.4l1.7-0.7v-1.7
	l1.4-0.3l1.7,0.3l3.1,0.7l1.7-0.3l0.7-2.1h1l0.7,0.7l0.7,1.7l0.7,2.8l1.7,2.4h1.7l0.3-1l1-0.7l0.3,0.3l0.3,1l1.7,2.1l1.4,1.7h1.7h1
	l0.7-1l1.7-2.1l1.7-1.7l2.1-2.8h2.1v-2.1h-0.7h-1l-1-0.7l-1-0.7l-2.8-3.4l-1.4-2.1v-2.1l1.4-1l0.3-6.9l1-0.3l-0.3-0.7h-1
	L203.3,130.5z"/>
    <path id="Kairouan" fill="#FFFFFF" stroke="#15A5DF" stroke-width="0.7279" stroke-miterlimit="1.5748"  d="M154.1,90.9h2.8l-0.3,0.7v2.1l1.4,0.3l1,0.3l1,1l1,2.4v3.1v2.1l-2.4,3.1l-2.4,3.4l0.3,2.4
	l2.8,4.5l1.4,3.1l1.7,3.8l1,3.1l-0.7,0.7l-1.4,1l-1.4,0.3l-0.3,2.1l1,0.3l0.3,2.1c-0.2,0.3-0.7,1.1-0.7,1.4c0,0.3-0.7,0.3-1,0.3
	l-0.3,2.1l-2.8,5.2l1.7,3.1l-0.3,1.4v3.1l2.1,3.1l-0.3,1.7l1.4,1.4h-0.7l-2.4,0.3l -1.7,1.4l-1.7,2.4l-3.1,2.4l-1,2.4l-1.7-1v-1.4
	l-1.4-6.5l-1.7-0.3l-2.1,0.3l-4.5-0.7l-6.2-1.4l-3.1-2.8l-3.1-3.8l-2.8-0.3l-5.9-5.5l1-1.7l-0.3-5.5l-1.4-1.4v-1.4l-2.4-4.1
	l-2.4-3.1l-2.4-2.4l-2.4-2.1v-1.7l0.7-0.7h1l2.4,0.3l1.4,1l0.3,0.7h1l0.7-0.7l1.7-1l1-0.3l1-0.7h1.4l0.3-1.4l-1.7-2.4l0.3-3.1
	l0.7-0.7l-0.7-2.8l0.3-1.7L130.7,94l1.7-0.7l0.3,0.3l0.7,0.7l2.1,0.3l0.3-0.3l2.4-1L140,93l1.7,0.7l1.4,1h2.1l1.7,0.7l1.7,2.4
	l1.4-0.3l1-2.4l1.4-2.1h1L154.1,90.9z"/>
    <path id="Tozeur" fill="#FFFFFF" stroke="#15A5DF" stroke-width="0.7279" stroke-miterlimit="1.5748"  d="M67.7,238.2l5.9-12.4h-5.9h-9.6l-2.1-0.7l-2.1-3.8l-0.7-1.7l-2.1-0.7h-1.7l-3.4-0.7l-1.7-2.8
	l-2.4-2.8l-2.8-2.1l2.4-4.1h1l2.4-0.3v-1l-1-0.7l-1.4-1.4l0.7-3.4v-2.4h-1.4l-2.4,1.4l-11.7,6.5L24,216.9l-5.9,3.1l-10.7,5.9v12.4
	l4.1,11.7l6.5,12.4l3.1,6.5h6.5l11.7-8.9l14.5-10L67.7,238.2z"/>
    <path id="Ben Arous" fill="#FFFFFF" stroke="#15A5DF" stroke-width="0.7279" stroke-miterlimit="1.5748"  d="M164.1,46.5l1.4,1.7l3.4,1.7v2.4l-1,2.8l-2.4,3.1l1,0.7v1.4l-1,2.8v3.1h-1.4l-0.7,1.4h-1.7h-2.1
	v-2.4l-3.4-3.1l-4.1-3.8h-1.7h-2.8l-1-1.7v-2.1l2.4-2.1l2.1-1.7h2.4l0.7-0.7l1-0.7h3.4l1-1l1-1.7l1-3.4h0.7L164.1,46.5z"/>
    <path id="path1_1_" fill="#FFFFFF" stroke="#15A5DF" stroke-width="0.7279" stroke-miterlimit="1.5748"  d="M150.3,49.6v1h3.1l2.1-1.7h3.4l1-1.4l1-2.8v-1h-1h-3.1v-1.4l1.4-0.3l1-0.7l1.4-0.7h1.7l-0.3,1.7
	l1.4-0.3l0.7-0.7l1.4-1.4l0.7-1v-1l-1.4,0.3H163l-2.4,0.7h-1.4l-1.7,1l-1.4,0.7l-2.1,1.4l-2.4,1.7l-1.4,0.7l-1.7,0.7h-1v1.4l1,2.4
	L150.3,49.6z"/>
    <path id="Bizerte" fill="#FFFFFF" stroke="#15A5DF" stroke-width="0.7279" stroke-miterlimit="1.5748"  d="M121.7,42l1-0.7l0.3-0.7l2.8-2.1l5.2-1l2.1-0.7l0.7-1.7l2.4-2.1l2.8-0.7l1.7,1l3.8,0.7h2.1v-1
	l1-2.1l2.1-3.4l1.4-3.1l1.7-2.4h1.4l4.1-0.7l-1.7-0.7h-2.1V19l0.3-0.3l0.7-0.3l1-0.7h1.7v0.7l0.7,0.7l0.7-0.3l0.3-0.3l1.4-0.7
	l-0.3-0.7l-1.4-0.3l-0.7-0.7l-1.7-1l-1-1h-1.4l-2.1-0.3h-2.1v-1.7h-1l-1.4,1l-1.7,0.7l-2.1-0.3l-2.1-1l-1.7-0.3l-1.7,1l-0.7,1l3.4,1
	h1.4v1.7l-0.7,1.7l-1.7,0.7l-2.4,0.7h-1.7l-1-1.4l-0.7-1.7v-1.7v-1.4l1.4-0.7l1.7-0.7l1.7-0.7V7.3h-3.1h-1.7l-1-0.7h-1.4l-0.7,0.7
	l-4.5,0.3l-1.4,1c-1,0.2-3.1,0.8-3.1,1c0,0.3-1.8,0.8-2.8,1l-1.4,0.7l-1.4,0.7h-1l-0.7-1h-0.7l-0.7,1l-1,1.7h-1l-1,1
	c-1.8-0.1-5.6-0.3-6.2-0.3c-0.6,0-1.8,0.2-2.4,0.3l-1.4,1.7L99,18.3L97,19v4.8v2.8l5.2,0.3l1,2.1l1.4,3.4l1,3.4l3.4,3.4h2.4l1.4,1
	l-0.3,2.8l-1,0.7v3.1l1.4,1.4h3.4l1-1.4l2.4-2.4L121.7,42z"/>
    <path id="Béja" fill="#FFFFFF" stroke="#15A5DF" stroke-width="0.7279" stroke-miterlimit="1.5748"  d="M93.9,19.7l2.8-1l0.3-0.3v2.1v5.9h1.7l3.4,0.7l2.1,4.5l1.4,4.1l3.4,3.4h2.4l1.4,1.4l-0.3,2.4l-1,1
	v2.8l1.7,1h3.1l1.4-1.4l3.1-3.4l2.1-1.7l0.7,0.7l6.2,5.9l3.8,0.7l0.7,1.4l0.3,1.7l1,1.7l2.4,4.1l0.7,2.1l-1.7,2.4l-4.1,3.8v2.8h-1
	h-0.3h-2.1h-1.7l-1.4,0.7l-1.7,1h-2.4l-2.1-2.1h-2.4h-2.1h-1.4l-1.4,1c-0.3,0.6-1.1,1.8-1.4,2.1c-0.3,0.3-0.8,1-1,1.4l-0.7,1l-1,0.3
	l-1.4-0.7l-1.7-1l-1.4-0.7h-1h-1.4l-1,0.7l-1,0.7l-1,0.3l-1-1l-3.8-3.8l0.3-2.8l1-2.8l0.3-2.1l-0.3-2.8l-1-2.8c-0.3-0.7-1-2.1-1-2.4
	s-0.2-2.6-0.3-3.8v-1.7l-1.4-0.7c-0.5-0.1-1.4-0.3-1.7-0.3c-0.3,0-1-0.2-1.4-0.3l-0.7-0.7v-2.1v-1.4l0.7-0.7l1-0.7l1-1v-2.1
	l-1.4-1.7l-1.7-2.4l1.4-2.1l-1.4-1.7l-0.7-1.4l2.8-2.1l1.4-1.7l0.7-2.1l1.7-0.7L93.9,19.7z"/>
    <path id="Jendouba" fill="#FFFFFF" stroke="#15A5DF" stroke-width="0.7279" stroke-miterlimit="1.5748"  d="M82.5,32.1l1-1l2.6-2.6l0.1-0.1l0.3-0.3l1,1.7l1,1.4l-0.3,0.3l-1,1.7l0.7,0.7l1.7,2.4l0.7,1.4
	v1.7l-1,1l-1.7,1.4v2.8l1,1.4l4.1,1.4v2.4l0.7,3.8l1.4,3.4l0.7,2.1V62c0,0.3-0.9,2.4-1.4,3.4l-0.3,2.4l-0.7-0.3l-2.1-0.3l-1.4,1
	L88,68.9h-0.7c-0.5,0.2-1.4,0.8-1.7,1c-0.3,0.3-1.4,0.3-1.7,0.7c-0.3,0.3-1.7,0-2.4,0h-6.5h-4.5c-0.3,0-1.9,0.5-2.8,0.7l-4.1,2.4
	h-3.1h-2.4L57.4,73v-4.1l-1-0.7l-1-1l-1-0.7l-1.7-0.3h-2.4l-2.4-0.3l-0.7-0.7v-2.4l1.4-1.7l2.1-1.7l2.1-1l3.1-1.4l3.8-1.7l1.7-2.4
	l1.4-2.1v-2.1l-1.4-2.1c-0.5-0.3-1.4-1.1-1.7-1.4c-0.3-0.3,0.6-0.6,1-0.7l2.1-0.3h3.1l2.1-0.3l3.8-1l1.4-1v-1.4l-1.4-1.7l-1-1
	l-0.3-2.1l0.7-1.4l2.1-1l2.4-1H82.5z"/>
     <path id="Le Kef" fill="#FFFFFF" stroke="#15A5DF" stroke-width="0.7279" stroke-miterlimit="1.5748"  d="M55.7,78.2l2.1-4.5h5.9l3.4-2.1l3.1-1h13.4l0.7-0.3h1l1-1l1.7-0.3l0.3,0.3l0.7,1.4l1.4,1l0.7,3.4
	l-0.7,1l-0.3,2.1l0.3,1l2.4,3.1l1,2.1v1.7l0.3,3.4l3.4,1.4l2.4,2.8v5.2l-0.7,0.3v1.7c0,0.3-0.2,0.6-0.3,0.7l-1.7,0.7v1l-0.7,2.8
	l-0.7,0.3l-1.7,1.7l-1,1.7v5.9l-1,2.1h-2.1l-3.8-1.4l-3.1-0.7l-3.8-1.4l-2.1-1.4h-2.1l-2.1,0.7l-1.7,2.8v2.1v2.4l-1,1h-2.8h-1.4
	l-1.7-1h-1.4h-1.4l-1,1c-0.6,0.3-1.8,1-2.1,1c-0.3,0-1.3,0.7-1.7,1h-1.7v-1l-0.7-3.1l-0.7-2.1l-1.7-1.4l-1-2.8v-6.9l-0.3-1.7
	l0.3-1.7l0.7-0.7v-2.1l0.3-3.1l1-1v-2.1v-2.4l0.7-1.4l0.7-1.4v-3.4l-0.3-0.7l-0.3-1l0.7-2.4L55.7,78.2z"/>
    <path id="Siliana" fill="#FFFFFF" stroke="#15A5DF" stroke-width="0.7279" stroke-miterlimit="1.5748"  d="M93.5,67.9l2.1,2.1l3.1,3.1l2.8-1.7h2.8l4.5,2.4l1-0.7l2.8-3.4l1.4-1.7h6.2l2.1,2.1h2.4l3.1-1.7
	h4.8l0.3,1l0.7,1.7l-0.3,1.7l-1,2.4l-2.1,1.7l-1.4,1.4l-2.1,1.4l-2.4,1.4v1.4l2.4,2.1l6.5,2.4l0.3,4.1l-0.7,2.4l-1.4,0.3l-12,10.7
	l-0.3,1.7l0.7,2.8l-0.7,0.7c-0.1,0.9-0.3,2.8-0.3,3.1c0,0.3,0.7,1,1,1.4l0.7,1l-0.3,1.4h-1.7l-1,1l-2.1,0.7l-0.7,1h-1.4l-0.3-0.7
	l-1.7-1h-1l-1.7-0.3l-1,0.3l-0.3,0.7l0.7,1.7l1.7,1.4l1.7,1.7l2.4,2.8l1.7,2.4l1.7,3.1v1.7h-2.1h-2.8l-1.4,1l-1-0.7l-0.3-1l-0.7-1.4
	l-2.4-1.4l-1-0.3l-2.1-1l-1-1.4v-1l-0.7-0.7l-1.4-0.7h-2.8l-1.4-0.7l-2.1-2.8l-1.7-3.1l1-2.4v-5.5l0.7-1l1.4-1.7l1.4-1.4l0.7-3.4
	l2.1-1v-2.1l0.7-0.7v-4.8l-1-1l-1.7-1.7l-3.1-1.4v-1.4l-0.3-3.1l-0.3-1.4l-1.7-2.8l-1.7-2.1v-2.1l1-1.7l-0.3-2.4l-1-1.4l-1-0.7
	l-0.3-1.7l0.7-0.3l1-0.7l1.4-0.7L93.5,67.9z"/>
    <path id="Zaghouan" fill="#FFFFFF" stroke="#15A5DF" stroke-width="0.7279" stroke-miterlimit="1.5748"  d="M145.5,55.1l2.1,3.1h4.5l7.2,7.2v2.1l4.1-0.3l0.7-1h1.7l-0.7,6.5l2.1,1.4v4.5l-1,0.3v2.1h1v1
	h-0.7l-1.7,0.3l-3.1,1v3.8l-1,1l-3.1,1.4l-1,1.4h-2.4l-0.7,2.1h-1L151,95l-1,2.8h-1.7l-0.7-1.4l-1-1.4l-1.4-0.3h-2.4l-1-1.4
	l-2.1-0.3c-1.3,0.5-3.9,1.4-4.1,1.7c-0.3,0.3-1.9-0.3-2.8-0.7v-1l0.7-2.1l-0.3-4.1l-6.9-3.1l-2.1-1.4l0.3-1.4l3.8-2.4l1.7-1.7
	l2.4-2.4l1-3.1l-0.3-1.4l-0.3-1.4v-2.1l0.3-1.4l4.5-4.1l1.4-1.7h1.7l2.8-4.5l1-1L145.5,55.1z"/>
    <path id="Sousse" fill="#FFFFFF" stroke="#15A5DF" stroke-width="0.7279" stroke-miterlimit="1.5748"  d="M166.8,74h9.6l-1.4,1.7l-0.7,2.8l-0.3,2.8l-1,1.4l-0.3,10l0.3,2.1l1.7,1.4v2.8l3.8,4.1l0.7,1.7
	l0.7,3.8l5.2,4.1l-0.7,0.7l-2.4,3.1l-0.3,7.6l-2.1,2.1l-3.8,0.3l0.3,1.4l-0.3,1.7l-3.1,1.4l0.7,2.4h2.8l1-1.4l1-1l1.4,0.3v1.4
	l-0.7,2.4l-1,0.7l-0.7,1.4l-2.4,0.7l-2.4-1.4v-2.4l-2.8-2.1l-1.4,0.3l-0.7,1l-1-0.7l-2.1-1.7l-1-2.4V126l-1-3.1l-3.4-6.9l-2.4-4.1
	l-0.3-2.4l2.1-2.8l2.8-4.1v-5.2l-1.4-2.4l-1.4-1l-1.7-0.3v-1.7l1-2.4l4.1-2.4v-3.8l5.9-1v-1.4h-1.7v-1.7l1-1V74z"/>
    <path id="Monastir" fill="#FFFFFF" stroke="#15A5DF" stroke-width="0.7279" stroke-miterlimit="1.5748"  d="M186.8,113.6l-1.4-0.7h-0.7l-2.8,3.4l-0.3,7.6l-2.1,2.1l-3.8,0.3l0.3,0.7l-0.3,2.1l-3.1,2.1
	l1,2.1l2.8-0.3l1.4-2.1l1.7,0.3l0.7,0.7l0.7,1l3.4,0.3l2.4,1.4h4.5l2.8-0.3l0.7-1.4l1-1.4l2.1-2.1l2.4-1l2.4-0.3v-1l0.3-2.1l1.4-0.3
	v-1l-0.7-2.1h-1h-1l-2.4-0.7l-2.4-0.7l-2.4-1l-2.1-0.7v-2.8l0.7-0.7l-0.7-2.1h-0.7l-1.7,0.7H186.8z"/>
    <path id="Kasserine" fill="#FFFFFF" stroke="#15A5DF" stroke-width="0.7279" stroke-miterlimit="1.5748"  d="M56,128.4v-4.1l2.1-0.7l2.1-1l1.7-1.4h2.8l2.1,1h2.1c0.6,0,1.4-0.2,1.7-0.3l1-1l0.3-4.1l1-2.4
	l2.1-1H77l1.4,0.7l3.1,1.4l3.1,0.7l2.4,1l2.8,0.7l2.4,0.3l1,1.7l2.1,3.4l2.1,1h3.1l1.7,1.4v1l1,1.7l2.4,0.7l3.4,1.7l0.7,2.8
	l-0.3,1.4l-0.3,1.7c-0.5,0.5-1.4,1.4-1.4,1.7c0,0.3-0.9,0.3-1.4,0.3l-1.4,0.7v1.4l-2.1,2.1c-0.6,1-1.8,3.1-2.1,3.1
	c-0.3,0-0.6,1.1-0.7,1.7l0.3,2.4l3.4,1l2.8,0.3v8.9l1,0.3v1.4l-1.4,1c-0.9,0.5-2.8,1.4-3.1,1.4c-0.3,0-2.9,0.7-4.1,1H97l-0.7,3.1
	l-2.4,1.7l0.3,2.8l1.4,0.7l-0.3,0.7l-1,0.3l-2.8,1.4c-0.7,0.3-2.4,2.1-2.8,2.4c-0.3,0.3-2.9,1-4.1,1.4l-2.1,2.4
	c-0.5-0.1-1.4-0.2-1.7,0.3c-0.3,0.6-0.8,0.9-1,1H77c-0.3,0-1.5,0.2-2.1,0.3c-0.7,0.3-2.1,1.1-2.4,1.4c-0.3,0.3-2.1,1-2.4,1
	c-0.3,0-0.6,0.9-0.7,1.4l-0.7,1.4l-0.7,1l-0.7-0.3l-2.1-1.4l-2.8-2.1l-1.4-0.7l-2.8-0.7l-2.4-1.4l-2.1-0.7l-2.1-1l-0.7-6.9l-0.3-2.8
	l0.7-2.1l1.4-3.1v-2.8l0.3-2.1l0.7-2.1l0.7-2.4l2.8-2.8l1.4-2.4c0.5-0.3,1.4-1.1,1.7-1.4c0.3-0.3,0.3-0.6,0.3-0.7l-0.7-2.1l-1.4-1
	l-1.4-0.7l-1.4-0.3l-1.4-0.7l-0.7-1.7c-0.2-0.6-0.7-1.8-0.7-2.1s-0.2-1-0.3-1.4l0.3-1.4l1-0.3l-0.3-2.8l0.3-1.4l1-2.8l0.7-1.7
	l0.3-1.4L56,128.4z"/>
    <path id="Gafsa" fill="#FFFFFF" stroke="#15A5DF" stroke-width="0.7279" stroke-miterlimit="1.5748"  d="M50.9,183.8l1.7-1l2.1,1l3.1,1.4l2.4,0.7l3.1,1L67,190l1.4,0.3l0.7-2.1l0.3-1.4l2.1-0.7l3.4-2.1
	l1.4-0.3h2.4c0.3,0,1.4-0.3,1.7-0.3c0.3,0,0.6-0.7,0.7-1h1.4l2.8,1c0.9,0.3,2.8,1.1,2.8,1.4c0,0.3,1.8,0.3,2.8,0.3h3.4l2.8,0.7
	l2.8,1c0.8,0.2,2.5,0.8,2.8,1c0.3,0.3,1,1,1.7,1h1.7l0.7-0.7l0.7-0.7l1,0.7l-0.7,1.4c-0.1,0.8-0.3,2.5-0.3,2.8
	c0,0.3,0.2,2.6,0.3,3.8l3.1,3.1l3.1,1.4l1.7,0.3l1.7,3.1l2.8,1l3.1,3.1v6.9c0,0.3-0.5,0.6-0.7,0.7l-3.8,1.7l-6.5-0.7l-3.4,1.4
	l-3.1,1c-1.5,0.2-4.5,0.7-4.8,0.7h-2.1l-0.3-1h-0.7v1c-0.5,0.1-1.4,0.4-1.7,0.7c-0.3,0.3-1.7,0.6-2.4,0.7l-0.3,3.8l-5.2,0.3l-0.7-1
	l-1.4-0.3l-1,0.3l-1,0.7l-1,0.3l-8.9,0.3h-1.7H59.5l-2.8-0.7l-1.4-2.4l-1.7-2.8l-0.7-0.7l-1.4-0.3h-1.7l-3.1-0.7l-1-0.7l-2.1-2.8
	l-2.1-2.8l-2.4-1.7l2.1-3.1l0.8-0.7h1.6l1.4-0.3v-0.7l-1-1.4l-1.4-1v-1.7l0.7-2.1v-1.7l-0.3-0.7c0.1-0.2,0.4-0.8,0.7-1l1.4-1.4
	c0.3-0.2,1.1-0.7,1.4-0.7c0.3,0,0.6-0.7,0.7-1l0.3-1.4l1.7-0.7l1-0.7l0.3-1.4l-1-0.7l-0.3-1v-1.4l0.3-0.7L50.9,183.8z"/>
    <path id="Sidi Bouzid" fill="#FFFFFF" stroke="#15A5DF" stroke-width="0.7279" stroke-miterlimit="1.5748"  d="M112.1,132.9h4.8l1.4,1.4l0.3,5.2l-1,1.7l5.9,5.5l2.8,0.3l3.4,4.1l2.8,2.4l11,2.1l1.7-0.3
	l1.7,0.7l1.4,5.9v1.7l1,0.7l0.3,0.7l-0.7,2.4l-4.1,8.9l-5.2,8.3l-1.7,3.4c-0.3,0.6-1,1.8-1,2.1c0,0.3,0.5,1.7,0.7,2.4
	c0.8,0.1,2.5,0.3,2.8,0.3c0.3,0,2.1,0.7,2.4,0.3c0.3-0.3,1.9,0.1,2.8,0.3l1.7,1.4l2.4,1l0.7,1v2.4l-1.4,1.7l-2.8,1.4l-1,1l-1,0.3
	l-1.7,0.3l-1,0.3c-0.6,0.5-1.8,1.4-2.1,1.7c-0.3,0.3-1.3,1-1.7,1.4c-1.3,0.5-3.9,1.4-4.5,1.4c-0.6,0-1.1,0.9-1.4,1.4v1
	c0.3,0.2,1.1,0.8,1.4,1c0.3,0.3,0.3,1.3,0.3,1.7l0.3,1.4l-0.7,0.3h-1.4l-1-1.4l-1.4-1.4l-1.4-0.3l-2.1,0.3l-1.7,1.4h-1v-6.2
	l-3.1-3.1l-2.8-1l-1.4-2.8l-0.7-0.3l-2.1-0.7l-2.8-1.4l-2.1-2.1l-0.7-1.4l-0.3-3.4l0.3-2.1l0.7-1.7l-1-0.7l-1.4,1.4h-2.1l-1.4-1
	l-3.4-1.4l-4.8-1.4l-5.5-0.3l-2.1-1l-3.8-1.7l2.8-2.4l2.8-0.7l2.1-2.1l2.4-1.4l2.4-0.7l0.7-1l-1-0.3l-0.7-1.4v-1.7l2.4-1.7l0.7-3.1
	l1,0.3l1.4-0.3l3.8-1l2.8-1l1.4-1.4v-1.4l-1-0.3v-7.6l-0.3-1.4l-3.8-1l-2.1-0.7v-3.1l1-1.4l1.7-2.8l1-0.7l0.7-1l0.3-1l0.3-0.7h1l1-1
	l1.7-2.4l0.3-2.4l0.7,0.7l0.7-0.3L112.1,132.9z"/>
    <path id="Sfax" fill="#FFFFFF" stroke="#15A5DF" stroke-width="0.7279" stroke-miterlimit="1.5748"
      d="M167.2,158l3.4,0.3l7.2-3.8v-2.4l2.1-0.7v-1.7l0.7-0.3l1.4,0.3l3.4,0.7h1.4l1-0.3l0.7-2.1h1l1,1
        l0.7,2.1l0.3,2.4l1.7,2.1h1l0.7-0.3l0.7-1l1-0.3v0.7l1.4,1.7l2.1,2.8h2.4v4.8c-0.2,0.1-0.7,0.4-0.7,0.7c0,0.3-1.4,1-2.1,1.4
        c-0.6,0.5-1.8,1.4-2.1,1.4c-0.3,0-0.3,0.9-0.3,1.4v4.8l-0.3,0.7v1l-2.1,0.3l-1.4,1v1.7l1,0.3v1h-1.4l-2.1,1l-1.7,2.4l-3.1,4.8h-1.7
        l-2.1,1.4l-1.7,0.7v2.1l-0.7,0.3v3.8l-0.7,0.7h-0.7l-0.3,1h-6.2l-2.1,1.4l-1.4,2.1l-1.7,3.1h-3.4l-1.7,1l-1.4,1.7l-2.8,0.7l-3.8,1.7
        l-0.7,1.4l-2.4,5.2l-3.1,4.1l-1-0.7l-1,0.3v1.7h-1.7l-1-0.3l-1.4-0.7l-1.4-0.7l-1.7-2.1v-0.7l-0.7-0.3l-0.7,0.3l-0.3,1h-2.4
        l-1.7-0.7l-1-1.7h1l1-0.3l-0.3-1.4l-0.3-1.7l-1-0.7l-0.3-1l0.7-1.4h0.7l1.4-0.7l3.8-1l3.4-3.1l2.1-0.7l1.7-0.3l0.7-1l2.4-1l1.7-1.7
        v-2.4l-1-1.4l-2.8-1.7l-1.4-0.7l-1.7-0.7l-1.4,0.3l-2.8-0.3l-1.7-0.7l-0.7-2.4l3.1-5.5l3.8-5.9l2.8-5.2l3.4-8.6l1-2.4l3.4-2.8l1-1.7
        l2.1-1.7l3.4-0.3l4.5,0.7L167.2,158z 
        M215.4,177.6h2.4h0.7l0.3,0.7v0.7h-1l-0.7,0.7l-0.3,1l0.3,1l1.4,0.7l0.3,0.7l-1,0.7l-1,0.7l-1,0.3
        H215l-0.7,1l-2.4,0.3l-3.4,1.4l-0.7,0.7v0.3l-1,0.3l-0.7,0.7l-0.7,0.7l-0.7,0.3H204l-0.7-0.7l-1.4-0.3l-1.4-1.4l0.3-1h0.7h2.1h2.1h1
        l1,0.3l0.3-0.7l1.7-2.1l1-1l0.3-1v-1l0.3-0.3l0.3,0.3l0.3,1h0.7l1-0.3l0.3-0.3v-1l-0.7-0.7l0.3-0.7l0.7-0.3L215.4,177.6z"/>

    <path id="Gabès" fill="#FFFFFF" stroke="#15A5DF" stroke-width="0.7279" stroke-miterlimit="1.5748"  d="M147.6,226.5l0.3-5.9l-1-1l-1,0.3l-0.3,1.7l-2.1-0.3l-2.1-1l-1-0.3l-1-1.4l-0.7-1v-0.7h-0.7
	l-0.7,0.3l-0.3,1h-0.7h-1.4l-2.1-0.7l-1.7-2.4l-1.7-1.7l-1-0.7l-1,0.3l-1.7,0.3l-1.4,1h-0.7l-0.3,0.7l-1,1l-3.8,1.4l-6.2-0.7
	l-4.5,1.7l-0.3,1l2.1,2.1l2.1,2.1l-0.7,1.4l-2.4,1.7l-1.7,2.1l-0.3,6.2l1,1.7v4.1c0,0.3,0.7,1.5,1,2.1l4.8,7.9l1.4,0.7l3.1,2.4
	l1,2.1l2.4-0.3l1,1.2l2.4,2.9v1l-1,1.4l-1.4,1.4v2.1l10.7,13.1h0.7h5.2l0.7-1h0.7l1.4,0.7l3.4,0.3l1-1.4h2.1l2.4-1.7l5.9-4.8
	l2.8-0.7l2.4-0.7l2.8-2.1l1.7-2.4l1-3.4l4.8-5.9l-2.1-1l-5.9-4.5c-2.2-1.9-6.5-5.9-6.5-6.2s-3.4-4.5-5.2-6.5l-2.8-4.1v-3.4l-0.3-0.7
	L147.6,226.5z"/>
    <path id="Kébili" fill="#FFFFFF" stroke="#15A5DF" stroke-width="0.7279" stroke-miterlimit="1.5748"  d="M107.3,220l1.4,1l2.4,2.8l-0.3,1l-2.4,1.7l-2.4,3.1v5.5l1.4,2.1v4.5l5.9,9.6l3.8,2.4l1.4,2.4
	l2.4-0.3l3.8,3.8v1.4l-2.4,2.8l0.3,2.4l10.7,13.1l4.5,4.8h3.8l1.7,1v7.9h-1.4v1.7l4.5,3.8v1l-2.4,0.7v5.2h1v4.1l-2.4,1.7v4.5
	l0.7,1.4l1.7,2.1v1.4l-1.7-0.7l-2.8-2.8l-3.8-1.4l-1.7-3.1l-2.8-2.4l-2.8,1l-5.2,1.4l-3.1,3.4h-2.8l-3.8,1l-4.1,1L57,328.4H55
	l-0.7-4.8v-7.9l-0.7-5.5l-11-17.9l-1.7-1.4h-3.1l-2.8-1.4l-6.5-5.2l-3.1,0.7l-3.4-2.8l-1-3.8l0.3-9.3h1.4l5.2-0.3L34,264l20.6-14.5
	l13.1-11.7l5.9-12l7.9-0.3l2.1-0.3l2.4-1l1.4,0.3l0.7,1l5.2-0.3l0.3-3.8l1.4-0.3l2.4-0.7l0.3-1.4H98l0.7,1h1.4
	c0.3,0,2.9-0.2,4.1-0.3l2.4-0.7h1L107.3,220z"/>
    <path id="Médenine" fill="#FFFFFF" stroke="#15A5DF" stroke-width="0.7279" stroke-miterlimit="1.5748"
  d="M174.7,255.8c-0.7-0.1-2.3-0.3-3.1-0.3l-4.5,5.9l-0.7,2.4l-1.7,3.1l-3.4,2.8
	c-1.6,0.5-4.9,1.4-5.2,1.4c-0.3,0-5.6,4.4-8.3,6.5h-2.1l-1,1.4l-3.4-0.3l-1.4-1h-0.7l-0.7,1.4h-3.8h-2.1l4.8,5.2h3.8
	c0.3,0,1.3,0.7,1.7,1l-0.3,7.9h6.9c0.3,0,0.8-0.7,1-1l2.1-2.4l0.3-1.4h2.4l1,0.7l0.7,0.7l2.1-0.3l3.1-3.1c0.3-0.3,1.5-0.3,2.1-0.3
	l7.6-3.4l3.1-0.7l3.4-0.7l2.4-0.7l1.7,1l-0.7,1.7l-1.7,1l2.4,2.8l5.2,0.3l12,5.9l3.1,2.1l0.3,1.7l1.4,2.8l4.1,3.1l0.3,3.8l-1,1.7
	v7.9l-1,0.3v1.4l0.3,1.7l14.1,11.7h3.4c0.6,0,0.5,0.7,0.3,1l-0.3,1l-1.7,1.4l-4.1,1.7l-4.8,4.1l-2.4,5.9l17.9-8.9l3.1-4.8l-1-3.4
	l-4.8-5.5V316l0.3-5.9l-0.3-2.8v-6.5l0.3-4.1l1.4-1.7l0.7-4.5v-4.8l-2.1-0.3L225,284l-3.8-3.4v1l3.8,4.1l-2.1-0.3h-1.7l-2.1-1
	l-1.4-0.7H215l-3.4,0.3l-1.7-2.4l-1-2.4l1-1h2.8l2.8,1.4h2.8l-0.3-0.7l-5.2-2.1l-3.4-2.4h-2.1l1-0.7l-1.7-4.8l0.7-1.4l1-0.7v-3.1
	v-2.4l-2.4-1.4v-1.7h-1l-3.4-1.7l-2.1-0.7l-1.4,1l-1.4,1.4l2.1,1.7l-0.3,1.4l-1.7,1.7l-2.1,0.7l-2.8,2.1l-3.1,1l-3.4-0.7v-2.4
	l-1.4-1.7v-1l1.4-0.7l2.1-2.1l0.3-2.4l-1-3.8l-1.4-0.3l-1.4,1.4l-3.4,1.7L174.7,255.8z
	M187.1,240.6l2.1-1.4l0.7-0.3l0.7,0.3l1.4,0.3l1.4,0.7h2.8l1-1.4l1,0.3v0.7l1.7,1.4l2.1,2.4h1
	l0.7,0.7l1.7,0.7v0.7l-0.7,0.7l-2.4,1l-2.1,1.4v1.4v1.7h-0.7l-0.3-2.4l-1,0.6v0.8c-0.3,0.7-1,2.1-1,2.4c0,0.3-0.5,1.5-0.7,2.1
	l-1.4,0.5l-0.3-0.9l0.3-2.4l-0.3-0.3l-1-1l-1-1.4l-0.7-0.7h-0.3l-1,1c-0.3,0.3-0.3,0.6-0.3,0.7l-0.7,1l-1,0.3V252l-0.7-1l-0.7-1
	v-2.1v-2.1l0.7-0.7l0.3-1.4v-0.3l-1-1V240.6z"/>
    <path id="Tataouine" fill="#FFFFFF" stroke="#15A5DF" stroke-width="0.7279" stroke-miterlimit="1.5748"  d="M182,282.9l-1.7,1l2.4,3.1h5.2l7.2,3.4l7.9,4.1v1l1.4,3.8l4.5,2.8l0.3,3.8l-1,2.4l-0.3,7.6
	l-1,0.3l1,3.4l14.1,11.4l3.4,0.3l-0.3,2.1l-2.8,1.7l-3.4,1.4l-4.8,4.1l-2.4,5.9l-3.8,1.4l-11,5.2l-3.4,3.8l-0.7,3.4l-3.4,2.8
	l-1.7,0.7l-1.4,1.7H184l-0.7-1l-1.4-0.7l-2.1,1.7c0.1,2.1,0.3,6.5,0,7.6c-0.3,1.1-1.5,0.5-2.1,0l-1.7,2.1v2.1l-1.7,1.7l-2.8,2.4
	h-5.5H163l-1.7,3.1l-3.4,6.9l-3.8,2.4l-1,5.5l7.2,21.7v3.4v2.8l1,10.3l-8.9,13.4L140,469.5l-7.6,1l-12.4,6.2l1-4.1l-2.8-7.9
	l-4.8-17.2v-6.5l-8.3-29.3l1-5.5l-4.8-16.2l-3.1-14.8l-3.1-13.1l-0.7-4.8L80.4,347l-11-8.9l-12.7-7.9l-1.4-1.7l19.3-3.4l8.3-1.4
	l22.4-4.5l13.1-3.1h2.8l3.1-3.4l4.5-1.4l3.4-1l2.8,2.4l1.4,3.4l3.8,1l1.7,1.7l2.8,1.7l0.3-1.7l-2.4-2.8v-4.5l2.4-2.8l-0.3-3.4h-0.7
	v-4.8l2.4-1v-1l-4.5-3.8v-1.7h7.9l2.4-3.1l1-1.4l0.7-0.7l1.7,0.7l1.7,1.4l2.1-0.7l1.7-1.7l1.7-1.7h1.7l2.4-1l5.5-2.4l5.5-1l3.1-1
	l1.7,1L182,282.9z"/>
    <path id="Kébili" fill="#FFFFFF" stroke="#15A5DF" stroke-width="0.7279" stroke-miterlimit="1.5748"  d="M107.6,220.3l1.4,1l2.4,2.8l-0.3,1l-2.4,1.7l-2.4,3.1v5.5l1.4,2.1v4.5l5.9,9.6l3.8,2.4l1.4,2.4
	l2.4-0.3l3.8,3.8v1.4l-2.4,2.8l0.3,2.4l10.7,13.1l4.5,4.8h3.8l1.7,1v7.9h-1.4v1.7l4.5,3.8v1l-2.4,0.7v5.2h1v4.1l-2.4,1.7v4.5
	l0.7,1.4l1.7,2.1v1.4l-1.7-0.7l-2.8-2.8l-3.8-1.4l-1.7-3.1l-2.8-2.4l-2.8,1l-5.2,1.4l-3.1,3.4h-2.8l-3.8,1l-4.1,1l-53.3,10.3h-2.1
	l-0.7-4.8V316l-0.7-5.5l-11-17.9l-1.7-1.4h-3.1l-2.8-1.4l-6.5-5.2l-3.1,0.7l-3.4-2.8l-1-3.8l0.3-9.3H23l5.2-0.3l6.2-4.8L55,249.9
	l13.1-11.7l5.9-12l7.9-0.3l2.1-0.3l2.4-1l1.4,0.3l0.7,1l5.2-0.3l0.3-3.8l1.4-0.3l2.4-0.7l0.3-1.4h0.3l0.7,1h1.4
	c0.3,0,2.9-0.2,4.1-0.3l2.4-0.7h1L107.6,220.3z"/>
    <path id="Nabeul" fill="#FFFFFF" stroke="#15A5DF" stroke-width="0.7279" stroke-miterlimit="1.5748"  d="M172.9,46.3v2.4h-6.7v0.3l2.5,1c-0.1,0.7-0.4,2.2-0.4,2.8v0.7l-0.7,1.4l-1.4,2.1l-1.1,1l1.1,0.7
	v0.7l-0.4,3.8h-0.4v3.1l-0.4,6.6l1.1,0.7h5.6L176,74l2.1-2.1h2.5l2.1-1l3.9-2.1h1.4l3.2-1l1.4-1.7l1.1-3.8l2.5-4.5l1.8-3.1l2.5-4.9
	l1.8-3.1l1.1-2.8l3.2-1.4l1.4-0.7l1.4-0.7v-1V38v-0.7h-1.1l-0.7-0.7v-0.7l-0.7-1.7l-0.4-2.1l-1.4-3.1v-4.2l-1.8-1l-0.4,1h-2.5h-3.5
	v2.1h-1.8V30l-3.2,2.1v2.4l-5.6,3.1l-4.2,2.1l-2.8-2.1l-1.4,2.1l-2.5,6.6H172.9z"/>
      <path id="Nabeul" fill="#FFFFFF" stroke="#15A5DF" stroke-width="0.7279" stroke-miterlimit="1.5748"  d="M172.9,46.3v2.4h-6.7v0.3l2.5,1c-0.1,0.7-0.4,2.2-0.4,2.8v0.7l-0.7,1.4l-1.4,2.1l-1.1,1l1.1,0.7
	v0.7l-0.4,3.8h-0.4v3.1l-0.4,6.6l1.1,0.7h5.6L176,74l2.1-2.1h2.5l2.1-1l3.9-2.1h1.4l3.2-1l1.4-1.7l1.1-3.8l2.5-4.5l1.8-3.1l2.5-4.9
	l1.8-3.1l1.1-2.8l3.2-1.4l1.4-0.7l1.4-0.7v-1V38v-0.7h-1.1l-0.7-0.7v-0.7l-0.7-1.7l-0.4-2.1l-1.4-3.1v-4.2l-1.8-1l-0.4,1h-2.5h-3.5
	v2.1h-1.8V30l-3.2,2.1v2.4l-5.6,3.1l-4.2,2.1l-2.8-2.1l-1.4,2.1l-2.5,6.6H172.9z"/>
     <path id="Bizerte" fill="#FFFFFF" stroke="#15A5DF" stroke-width="0.7279" stroke-miterlimit="1.5748"  d="M121.7,42l1-0.7l0.3-0.7l2.8-2.1l5.2-1l2.1-0.7l0.7-1.7l2.4-2.1l2.8-0.7l1.7,1l3.8,0.7h2.1v-1
	l1-2.1l2.1-3.4l1.4-3.1l1.7-2.4h1.4l4.1-0.7l-1.7-0.7h-2.1V19l0.3-0.3l0.7-0.3l1-0.7h1.7v0.7l0.7,0.7l0.7-0.3l0.3-0.3l1.4-0.7
	l-0.3-0.7l-1.4-0.3l-0.7-0.7l-1.7-1l-1-1h-1.4l-2.1-0.3h-2.1v-1.7h-1l-1.4,1l-1.7,0.7l-2.1-0.3l-2.1-1l-1.7-0.3l-1.7,1l-0.7,1l3.4,1
	h1.4v1.7l-0.7,1.7l-1.7,0.7l-2.4,0.7h-1.7l-1-1.4l-0.7-1.7v-1.7v-1.4l1.4-0.7l1.7-0.7l1.7-0.7V7.3h-3.1h-1.7l-1-0.7h-1.4l-0.7,0.7
	l-4.5,0.3l-1.4,1c-1,0.2-3.1,0.8-3.1,1c0,0.3-1.8,0.8-2.8,1l-1.4,0.7l-1.4,0.7h-1l-0.7-1h-0.7l-0.7,1l-1,1.7h-1l-1,1
	c-1.8-0.1-5.6-0.3-6.2-0.3c-0.6,0-1.8,0.2-2.4,0.3l-1.4,1.7L99,18.3L97,19v4.8v2.8l5.2,0.3l1,2.1l1.4,3.4l1,3.4l3.4,3.4h2.4l1.4,1
	l-0.3,2.8l-1,0.7v3.1l1.4,1.4h3.4l1-1.4l2.4-2.4L121.7,42z"/>
    <path id="Béja" fill="#FFFFFF" stroke="#15A5DF" stroke-width="0.7279" stroke-miterlimit="1.5748"  d="M93.9,19.7l2.8-1l0.3-0.3v2.1v5.9h1.7l3.4,0.7l2.1,4.5l1.4,4.1l3.4,3.4h2.4l1.4,1.4l-0.3,2.4
	l-1,1v2.8l1.7,1h3.1l1.4-1.4l3.1-3.4l2.1-1.7l0.7,0.7l6.2,5.9l3.8,0.7l0.7,1.4l0.3,1.7l1,1.7l2.4,4.1l0.7,2.1l-1.7,2.4l-4.1,3.8v2.8
	h-1h-0.3h-2.1h-1.7l-1.4,0.7l-1.7,1h-2.4l-2.1-2.1h-2.4h-2.1h-1.4l-1.4,1c-0.3,0.6-1.1,1.8-1.4,2.1c-0.3,0.3-0.8,1-1,1.4l-0.7,1
	l-1,0.3l-1.4-0.7l-1.7-1l-1.4-0.7h-1h-1.4l-1,0.7l-1,0.7l-1,0.3l-1-1l-3.8-3.8l0.3-2.8l1-2.8l0.3-2.1l-0.3-2.8l-1-2.8
	c-0.3-0.7-1-2.1-1-2.4s-0.2-2.6-0.3-3.8v-1.7l-1.4-0.7c-0.5-0.1-1.4-0.3-1.7-0.3c-0.3,0-1-0.2-1.4-0.3l-0.7-0.7v-2.1v-1.4l0.7-0.7
	l1-0.7l1-1v-2.1l-1.4-1.7l-1.7-2.4l1.4-2.1l-1.4-1.7l-0.7-1.4l2.8-2.1l1.4-1.7l0.7-2.1l1.7-0.7L93.9,19.7z"/>
    <path id="Tunis" fill="#FFFFFF" stroke="#15A5DF" stroke-width="0.7279" stroke-miterlimit="1.5748"  d="M150,50v1h3.1l2.1-1.7h3.4l1-1.4l1-2.8v-1h-1h-3.1v-1.4l1.4-0.3l1-0.7l1.4-0.7h1.7l-0.3,1.7l1.4-0.3
	l0.7-0.7l1.4-1.4l0.7-1v-1l-1.4,0.3h-1.7l-2.4,0.7h-1.4l-1.7,1l-1.4,0.7l-2.1,1.4l-2.4,1.7l-1.4,0.7l-1.7,0.7h-1v1.4l1,2.4L150,50z"
    />
    <path id="Zaghouan" fill="#FFFFFF" stroke="#15A5DF" stroke-width="0.7279" stroke-miterlimit="1.5748"  d="M145.1,55.5l2.1,3.1h4.5l7.2,7.2v2.1l4.1-0.3l0.7-1h1.7l-0.7,6.5l2.1,1.4v4.5l-1,0.3v2.1h1v1
	h-0.7l-1.7,0.3l-3.1,1v3.8l-1,1l-3.1,1.4l-1,1.4h-2.4l-0.7,2.1h-1l-1.4,2.1l-1,2.8h-1.7l-0.7-1.4l-1-1.4l-1.4-0.3h-2.4l-1-1.4
	l-2.1-0.3c-1.3,0.5-3.9,1.4-4.1,1.7c-0.3,0.3-1.9-0.3-2.8-0.7v-1l0.7-2.1l-0.3-4.1l-6.9-3.1l-2.1-1.4l0.3-1.4l3.8-2.4l1.7-1.7
	l2.4-2.4l1-3.1l-0.3-1.4l-0.3-1.4v-2.1l0.3-1.4l4.5-4.1l1.4-1.7h1.7l2.8-4.5l1-1L145.1,55.5z"/>
	
    <path id="Manouba" fill="#FFFFFF" stroke="#15A5DF" stroke-width="0.7279" stroke-miterlimit="1.5748"  d="M142.2,33.6l4.7,0.8l-0.8,2.4l-0.2,2.2h2.2l1,1.2l1,1.6l1,2l-2,1l-1.4,0.4l-0.2,1.4l1,2.2l1.8,0.8
	v1l0.4,0.2l-3.9,3.2v1l-0.6,0.6l-1.6-2.2l-1.4,1.4l-2.4,4.1h-1.8l-0.8-2l-3.4-6.1l-0.2-1.4l-0.8-1.6l-3.9-0.6l-6.5-6.1v-0.4l0.2-0.4
	l2.6-2l3.6-0.8l3.4-0.8l0.2-0.4l0.6-1.4l2.4-2l2.6-0.6l1.6,0.8L142.2,33.6z"/>
    <path id="Ariana" fill="#FFFFFF" stroke="#15A5DF" stroke-width="0.7279" stroke-miterlimit="1.5748"  d="M145.8,38l0.4-1.6l0.4-2.3l0-1.3l0.8-1.2l2.6-5.1l1-2l0.8-1.4l0.8-1h1.6l4.1-0.8l1.2,0.4V22
	l-0.2,0.4l-1.6,1.2l-0.4,0.2l-0.8,0.8l0.8,4.7l2.2,3l1.2,1.8l2.2,1l1.6,1.2l0.4,0.4v0.8l-0.2,0.2l-2.2,0.4l-3.2,0.6l-0.8,0.4
	l-4.1,2.4l-3.9,2.4l-0.4-1l-1-1.8l-1-1.8l-0.8-0.4l-1.4-0.4L145.8,38z"/>
    <g>
	<path fill="#0CB4E3" stroke="#15A5DF" stroke-width="0.7279" stroke-miterlimit="1.5748"  d="M134.9,237.3c-0.2-0.1-0.4-0.1-0.6-0.1c-0.8-0.1-1.5-0.3-2.2-0.7c-0.3-0.1-0.5-0.2-0.8-0.4
		c-0.9-0.4-1.7-0.3-2.4,0.4c-0.3,0.3-0.6,0.6-0.7,1c-0.1,0.2-0.2,0.3-0.2,0.5c-0.2,0.4-0.3,0.4-0.5,0.1c-0.9-0.9-1.9-0.9-3-0.5
		c-1.1,0.4-2.2,0.9-3.1,1.6c-0.7,0.5-1.4,0.9-2.3,1.1c-0.1,0-0.2,0.1-0.4,0.1c-0.9,0.2-1.6,0.7-2,1.6c-0.5,0-0.9,0-1.4,0
		c0,0,0,0,0,0c-0.1,0-0.2,0-0.4,0c0.1,0,0.2,0,0.4,0c-0.3-0.3-0.6-0.2-1-0.2c-0.5-0.2-1-0.2-1.5-0.3c-0.3-0.1-0.6,0-0.7,0.3
		c-0.4,0.3-0.7,0.6-0.9,1.1c-0.3,0.6-0.3,0.6-0.8,0.5c-0.3-0.1-0.6-0.1-0.8-0.2c-1-0.4-2-0.7-3-1.2c-0.7-0.3-1.4-0.5-2.2-0.4
		c-0.8,0.1-1.6,0-2.3-0.3c-0.4-0.1-0.7-0.2-1.1-0.3c-0.3-0.1-0.6,0-0.8,0.2c-0.4,0.4-0.8,0.6-1.3,0.7c-0.3,0-0.6,0-0.9,0.1
		c-0.5,0.1-1.1,0.1-1.6,0.1c-0.2,0-0.3-0.1-0.4-0.4c0.6-0.3,1.2-0.5,1.8-0.9c0.8-0.5,1-1.2,0.4-2c-0.6-0.8-1.3-1.6-2.2-2.1
		c-0.1-0.2-0.3-0.2-0.5-0.2c-0.3,0-0.7,0-1,0.1c-0.6,0.1-1.3,0.1-1.9,0c-0.1,0-0.3,0-0.4,0c-0.1,0-0.1,0-0.2,0
		c-0.2-0.2-0.4-0.2-0.6-0.2c-0.1,0-0.1,0-0.2,0c-0.7-0.3-1.4-0.4-2.1-0.3c-0.5,0-0.9,0-1.3,0.3c-0.1,0-0.2,0-0.4,0
		c-0.1,0-0.2,0-0.2,0.1c0,0-0.1,0-0.2,0c-0.2,0-0.3,0-0.4,0.1c0,0-0.1,0-0.2,0c-0.2,0-0.3,0-0.4,0.2c-0.2,0-0.3,0-0.4,0.2
		c0,0-0.1,0-0.1,0.1c-0.2,0-0.3,0-0.4,0.2c-0.4,0-0.9,0-1.3,0c-0.6-0.2-1.1-0.5-1.5-1c-0.4-0.4-0.8-0.5-1.3-0.3
		c-0.3,0.2-0.7,0.3-1,0.5c0,0.1-0.1,0.1-0.2,0.2c0.1,0,0.1-0.1,0.2-0.2c-0.2,0-0.3,0-0.4,0.2c0,0-0.1,0-0.2,0c-0.2,0-0.4,0-0.6,0.2
		c-0.7,0-1.4,0-2.1,0c-0.1,0-0.1,0-0.2,0c-0.2-0.2-0.4-0.2-0.6-0.2c-0.1-0.1-0.2-0.2-0.4-0.2c-0.1,0-0.1,0-0.1-0.1
		c-0.1-0.1-0.1-0.1-0.2-0.1c0,0-0.1,0-0.1-0.1c0-0.1-0.1-0.1-0.2-0.1c0,0,0,0,0,0c-0.1-0.2-0.2-0.2-0.4-0.2c0,0,0,0,0,0
		c0-0.1-0.1-0.1-0.2-0.2c-0.2-0.1-0.4-0.3-0.5-0.4c0-0.1-0.1-0.2-0.2-0.1c0,0,0,0,0,0c-0.2-0.2-0.4-0.2-0.6-0.2
		c-1.2-0.1-2.4,0-3.6,0c-0.1,0-0.1,0-0.2,0c-0.3-0.2-0.6-0.2-0.9-0.2c0,0,0,0,0,0c-0.4-0.2-0.9-0.2-1.3,0c0,0,0,0,0,0
		c-0.3,0-0.5,0-0.7,0.2c0,0,0,0,0,0c-0.1,0-0.2,0-0.2,0.1c-0.2,0.2-0.5,0.4-0.7,0.6c-0.1,0-0.2,0-0.2,0.1l0,0
		c-0.2,0-0.3,0.1-0.4,0.2c0,0,0,0,0,0c-0.2,0-0.3,0-0.4,0.2c0,0,0,0,0,0c-0.2,0-0.3,0-0.4,0.2c-0.1,0-0.1,0-0.2,0
		c-0.8,0.1-1.7,0-2.5,0c-0.1,0-0.1,0-0.2,0c-0.6-0.3-1.3-0.4-1.9,0c-0.1,0-0.1,0-0.2,0c-0.2,0-0.3,0-0.4,0.2c-0.5,0.2-1,0.6-1.4,1
		c-0.7,0.6-1.4,1.2-2,1.9c-0.5,0.5-1,0.8-1.6,1.1c-0.5,0.2-0.9,0.4-1.4,0.6c-0.8,0.4-1.3,1-1.6,1.8c-0.1,0.2-0.1,0.4-0.2,0.5
		c-0.1,0.3-0.3,0.6-0.5,0.9c-0.2,0-0.3,0.1-0.4,0.2c0,0,0,0,0,0c-0.2,0-0.3,0-0.4,0.2c-0.1,0-0.1,0-0.2,0c-1.6,0-3.2,0.2-4.8,0.5
		c-0.3,0-0.6,0.1-0.8,0.3c-0.1,0-0.1,0-0.2,0c-0.2,0-0.4,0-0.6,0.2c-0.1,0-0.1,0-0.2,0c-0.2,0-0.3,0-0.4,0.2c-0.1,0-0.1,0-0.2,0
		c-0.2,0-0.3,0-0.4,0.2c-0.5,0-1.1,0-1.6,0.1c-0.4,0-0.9,0-1.2,0.3c0,0,0,0,0,0c-0.1,0-0.3,0-0.4,0c0.1,0.2,0.3,0.2,0.4,0v0
		c-0.1,0.2-0.3,0.2-0.4,0c-0.1,0-0.1,0-0.2,0c-0.1-0.1-0.2-0.2-0.4-0.2c-0.4-0.2-0.8-0.4-1.2-0.6c-1.7-0.8-3.4-0.7-5.1,0.1
		c-0.7,0.3-1.2,0.8-1.6,1.4c-0.4,0.6-0.6,1.3-0.3,2.1c0.1,0.2,0.2,0.5,0.2,0.7c0.2,1.1,0.8,2.1,1.6,2.8c0.5,0.5,1,0.9,1.6,1.4
		c0.5,0.4,0.9,0.9,1.2,1.6c0.3,0.6,0.7,1.1,1.4,1.4c0.1,0.1,0.2,0.2,0.4,0.2c0.1,0,0.1,0,0.2,0c0,0,0,0,0,0c0.3,0.3,0.7,0.3,1.1,0.3
		c0.6,0,1.3,0,1.9,0c1.2,0.2,2.4,0.3,3.6,0.6c0.1,0,0.1,0,0.2,0c0,0,0,0,0,0c0.1,0.1,0.2,0.2,0.4,0.2c0,0,0,0,0,0
		c0.1,0.1,0.2,0.2,0.4,0.2c0,0,0,0,0,0c0,0.1,0.1,0.2,0.2,0.2c0,0,0,0,0,0c0,0.1,0.1,0.2,0.2,0.2c0.1,0.2,0.2,0.3,0.3,0.5
		c0.4,0.7,0.9,1.1,1.7,1.3c0.5,0.1,1,0.3,1.5,0.5c0.9,0.3,1.7,0.6,2.4,1.2c0.7,0.6,1.5,1.1,2.3,1.6c0.8,0.5,1.5,1.1,2.1,1.7
		c0.5,0.5,0.8,1.1,0.7,1.9c-0.1,0.7,0.1,1.3,0.7,1.7c0.5,0.4,0.8,0.8,0.8,1.4c0,0.6,0.4,0.9,0.9,1.1c0.5,0.2,1.1,0.3,1.7,0.4
		c1.2,0.2,2.3,0.4,3.5,0.6c0.9,0.1,1.7,0.4,2.5,0.8c0.1,0.1,0.2,0.2,0.4,0.2c0.1,0.1,0.2,0.2,0.4,0.2c0.1,0.2,0.2,0.2,0.4,0.2
		c0.3,0.3,0.5,0.2,0.8,0c0.1,0,0.1,0,0.2,0c0.8,0,1.5,0,2.3,0c0.1,0,0.1,0,0.2,0c0.1,0.1,0.2,0.2,0.4,0.1c0,0,0.1,0,0.1,0
		c0.1,0.1,0.2,0.2,0.4,0.2c0.1,0.1,0.2,0.2,0.4,0.2c0,0,0,0,0,0c0,0.1,0.1,0.1,0.2,0.1c0,0,0.1,0.1,0.1,0.1c0,0.1,0.1,0.1,0.2,0.1
		c0,0,0,0,0,0c0,0.1,0.1,0.1,0.2,0.1c0.1,0,0.1,0.1,0.2,0.1c0,0,0,0,0,0c0,0,0,0,0,0c0,0.1,0.1,0.1,0.2,0.1c0,0,0,0,0,0
		c0,0.1,0.1,0.1,0.2,0.1c0.1,0,0.1,0.1,0.2,0.1c0,0.1,0.1,0.1,0.2,0.1c0.1,0,0.1,0.1,0.2,0.1c0,0.1,0.1,0.1,0.2,0.1
		c0.1,0,0.1,0,0.2,0.1c0.4,0.3,0.5,0.3,0.8,0c0.1,0,0.1-0.1,0.2-0.1c0.1,0,0.2,0,0.2-0.1c0,0,0,0,0,0c0.1,0,0.2-0.1,0.2-0.2
		c0.6-0.7,0.8-1.6,1.1-2.4c0.1-0.1,0.2-0.3,0.1-0.4c-0.1,0-0.1,0.1-0.1,0.1c0,0,0,0.1,0,0.1c0,0,0-0.1,0-0.1c0,0,0.1-0.1,0.1-0.1
		c0-0.2,0.1-0.3,0.1-0.5c0.2-0.4,0.2-0.8,0.1-1.2c0.2-0.6,0.4-1.2,0.9-1.6c0.5,0,1-0.2,1.5-0.3c0.2-0.1,0.4-0.1,0.6-0.1
		c0.1,0.1,0.1,0.2,0.2,0.3c0,0.1,0.1,0.2,0.2,0.2c0.2,0.2,0.3,0.4,0.5,0.6c0,0.1,0,0.1,0.1,0.2c0.4,0.7,0.7,1.4,1,2.1
		c0.1,0.2,0.1,0.4,0.3,0.6c0.2,0.3,0.6,0.3,0.8,0.1c0.2-0.2,0.4-0.5,0.4-0.8c0.1-0.5,0.1-1,0-1.5c0-0.8,0.3-1.4,0.9-1.9
		c0.4-0.3,0.8-0.3,1.2,0.1c0.1,0.2,0.3,0.4,0.4,0.5c0.2,0.3,0.3,0.7,0.5,1c0.1,0.2,0.2,0.4,0.3,0.6c0.3,0.4,0.6,0.5,1,0.2
		c0.3-0.2,0.6-0.5,0.8-0.8c0.7-0.9,0.5-1.5-0.4-2c-1-0.5-1.7-1.3-2.2-2.3c0.1-0.2,0-0.4-0.1-0.5c-0.2-0.5-0.1-1,0.2-1.5
		c0.2-0.3,0.3-0.6,0.3-1c0-0.5,0.2-0.9,0.6-1.1c0.1,0,0.2,0,0.2-0.2c0,0,0,0,0,0c0.1,0,0.2,0,0.2-0.1c0,0,0.1-0.1,0.1-0.1
		c0.1,0,0.2-0.1,0.2-0.2c0,0,0,0,0,0c1.1,0,2.1-0.1,3.2,0c0.1,0.7,0.1,1.3-0.1,2c-0.2,0.1-0.3,0.2-0.1,0.4c-0.1,0.1-0.1,0.3-0.2,0.4
		l0,0c-0.1,0-0.2,0.1-0.2,0.2c0,0,0,0,0,0c-0.2,0-0.4,0-0.6,0.2c-0.1,0-0.1,0-0.2,0.1c-0.1,0-0.2,0-0.2,0.1
		c-0.5,0.4-0.5,0.9-0.2,1.4c0,0.1,0,0.2,0.1,0.2c0.1,0.1,0.3,0.3,0.4,0.4c0,0.1,0.1,0.2,0.2,0.2c0.1,0.2,0.2,0.2,0.4,0.2
		c0,0,0,0,0,0c0.5,0.3,0.9,0.3,1.4,0c0.1,0,0.1,0,0.2,0c0.2,0,0.4,0,0.6-0.2c0.9-0.4,1.8-0.4,2.8-0.2c0.2,0,0.4,0.1,0.7,0.1
		c1,0,1.7-0.5,1.8-1.5c0-0.2,0.1-0.4,0.1-0.7c0-0.5,0-0.9,0.2-1.4c0.1-0.3,0-0.6-0.2-0.8c-0.3-0.3-0.6-0.6-0.9-0.9
		c-0.5-0.5-1.1-1-1.6-1.6c-0.4-0.4-0.6-0.8-0.7-1.3c0-0.2,0-0.3-0.1-0.5c-0.4-1.2-0.9-2.2-2.1-2.7c-0.6-0.3-1.1-0.6-1.7-0.8
		c-0.5-0.2-0.8-0.4-1-0.9c-0.2-0.4-0.4-0.8-0.8-1c-1.4-1-2.9-1.7-4.6-1.7c-0.8,0-1.5-0.1-2.3-0.2c-0.5,0-0.8-0.3-1-0.7
		c-0.4-1-1.2-1.6-2.1-2.1c-0.4-0.2-0.8-0.4-1.1-0.7c-0.4-0.3-0.4-0.4-0.2-0.8c0.1-0.1,0.2-0.3,0.2-0.4c0.5-1.3,0.9-1.2,2.1-1
		c0.5,0.1,0.8,0.3,0.9,0.8c0.1,0.4,0.2,0.9,0.3,1.3c0.1,0.4,0.2,0.9,0.6,1.2c0.1,0.2,0.2,0.2,0.4,0.2c0.1,0.2,0.3,0.2,0.5,0.2
		c0.4,0,0.8,0,1.2,0c0.2,0,0.3,0,0.4-0.1c0.1,0,0.1,0,0.2,0c0.1-0.1,0.3-0.2,0.5-0.2c-0.2,0-0.3,0-0.5,0.2c0.3,0,0.5,0,0.8,0
		c0,0,0-0.1,0-0.1c0,0,0,0.1,0,0.1c0.5,0,1,0,1.5,0c0.2,0,0.3,0,0.4-0.2c0.2,0,0.4,0,0.6,0c0.6,0.3,1.1,0.1,1.5-0.2
		c0-1-0.4-1.9-0.5-2.9c0-0.2-0.2-0.3-0.4-0.3c-0.7,0.1-1.4,0.2-2.2,0.2c-0.6,0-0.7,0-0.9-0.6c-0.2-0.7-0.7-1.1-1.4-1.3
		c-0.6-0.1-1.2-0.3-1.9-0.4c-0.2,0-0.3-0.1-0.4-0.3c0.7-0.4,1.5-0.8,2.2-1.2c0.7-0.3,1.4-0.6,2-1.1c0.3-0.3,0.4-0.2,0.8,0
		c0.5,0.4,1,0.8,1.5,1c1.1,0.5,2.3,1,3.4,1.4c0.7,0.3,1.2,0.7,1.4,1.4c0.1,0.4,0.3,0.8,0.4,1.2c0.2,0.5,0.4,0.9,0.6,1.4
		c0.3,0.5,0.7,1,1.3,1.2c0.5,0.4,1.1,0.3,1.8,0.3c0.1,0,0.1,0,0.2,0c0.2,0.2,0.5,0.2,0.8,0.2c0.2,0.2,0.4,0.2,0.6,0.2
		c0.1,0,0.1,0,0.2,0c0.2,0.2,0.4,0.2,0.6,0.2c0.2,0.2,0.5,0.2,0.8,0.2c2,0,4-0.2,6-0.5c0.3,0,0.6,0,0.8-0.3c0.2,0,0.4,0,0.6-0.2
		c0,0,0,0,0,0c0.2,0,0.4,0,0.6-0.2c0.1,0,0.1,0,0.2,0c0.3,0,0.6,0,0.8-0.2c0.2,0,0.4,0,0.6-0.2c0.6-0.2,1.1-0.4,1.3-1
		c0.2-0.4,0.4-0.7,0.7-0.9c0.2-0.2,0.5-0.4,0.5-0.7c0.1-0.5,0.5-0.7,0.9-0.7c0.8-0.2,1.6-0.4,2.3-0.8c0.1,0,0.1,0,0.2-0.1
		c0.1,0,0.3,0,0.3,0.1c0.1,0.2,0.2,0.4,0.3,0.6c0.5,1,1.4,1.2,2.4,0.6c0.2-0.2,0.5-0.3,0.7-0.5c0.4-0.4,0.9-0.7,1.4-0.9
		c0.2,0,0.4,0,0.6-0.2c0.1,0,0.2,0,0.4,0c0.1,0,0.2,0.1,0.3,0.1c0.7,0,1.4,0.1,2,0.1c0.5,0,1,0.1,1.4-0.2c0.1,0,0.1,0,0.2,0
		c0.2,0,0.3,0,0.4-0.1c0.1,0,0.1,0,0.1,0c0.2,0,0.3,0,0.4-0.2c0.1,0,0.2,0,0.2-0.2l0,0c0.1-0.1,0.2-0.2,0.3-0.3c0,0,0,0,0,0
		c0.1,0,0.2-0.1,0.2-0.2c0,0-0.1,0-0.1,0.1c0,0,0.1,0,0.1-0.1c0.3-0.5,0.6-1,1-1.5c0.4-0.6,0.8-1.1,1.2-1.5c0.2-0.2,0.4-0.2,0.7-0.1
		c0.1,0.1,0.2,0.2,0.4,0.2c0,0,0,0,0,0c0.1,0.2,0.3,0.2,0.6,0.2c0,0,0,0,0,0c0.2,0.2,0.5,0.2,0.8,0.2c0,0,0,0,0,0
		c0.1,0.1,0.3,0.2,0.4,0.2c0.9,0,1.9,0,2.8,0c0.2,0,0.3,0,0.4-0.2c0.3-0.1,0.6-0.1,0.8-0.4c0.3-0.6,0.5-1.2,0.5-1.8
		C135.3,237.6,135.2,237.4,134.9,237.3z"/>
        <path fill="#0CB4E3" stroke="#15A5DF" stroke-width="0.7279" stroke-miterlimit="1.5748"  d="M35.3,237.6c0.9,0.4,1.8,0.8,2.7,1.2c0.8,0.3,1.6,0.3,2.3-0.1c0.2-0.1,0.5-0.2,0.8-0.3c0.2,0,0.3,0,0.4-0.2
		c0.2,0,0.3,0,0.4-0.2c0.1,0,0.1,0,0.2,0c0.8,0,1.7,0,2.5,0c0,0,0,0,0,0c0.1,0.2,0.3,0.2,0.5,0.2c0.1,0,0.1,0,0.2,0.1
		c0,0.1,0.1,0.2,0.2,0.2l0,0c0.1,0.1,0.3,0.2,0.4,0.2l0,0c0,0.1,0.1,0.2,0.2,0.2c0.1,0.1,0.1,0.1,0.2,0.2c0,0.1,0.1,0.2,0.2,0.2
		c0,0,0,0,0,0c0,0.1,0.1,0.2,0.2,0.2c0.2,0.2,0.4,0.4,0.6,0.6c0,0.1,0.1,0.2,0.2,0.2c0,0.1,0.1,0.2,0.2,0.2c0,0,0.1,0.1,0.1,0.1
		c0.1,0.1,0.1,0.2,0.3,0.1c0.1,0,0.1,0,0.2,0c0.4,0.3,0.8,0.3,1.3,0.3c0.4,0,0.8-0.1,1.2-0.1c0.2,0,0.3-0.1,0.5-0.2
		c0.6-0.4,0.7-1,0.8-1.5c0.2-1.2,0.3-2.4,0.2-3.6c0-0.6-0.2-1.1-0.6-1.5c-0.1-0.2-0.2-0.3-0.4-0.2c0,0,0,0,0,0
		c-0.1-0.2-0.3-0.2-0.5-0.2c-0.4,0-0.8,0-1.1,0c0-0.2-0.1-0.4-0.3-0.6c0-0.1,0-0.2-0.1-0.2c-0.1-0.5-0.1-0.9,0.2-1.3
		c0.3-0.5,0.4-1,0.4-1.6c0.1-0.9,0.1-1.8,0.1-2.7c0-0.3,0-0.7-0.3-1c-0.1-0.1-0.1-0.2-0.2-0.2c-0.6,0-1.2-0.1-1.7,0.2c0,0,0,0,0,0
		c-1.6,0-3.2,0-4.9,0c0,0,0,0,0,0c-0.3,0-0.6-0.1-0.9,0.2c-0.1,0-0.1,0-0.2,0c-0.3-0.1-0.6-0.1-0.9,0.2c-0.1,0-0.1,0-0.2,0
		c-0.9,0-1.8,0-2.6,0.4c-0.1,0-0.1,0-0.2,0c-0.3,0-0.6-0.1-0.9,0.2c-0.1,0-0.1,0-0.2,0c-0.3,0-0.6-0.1-0.9,0.2c-0.2,0-0.4,0-0.6,0.1
		c-0.3,0-0.6,0.1-0.8,0.2c-0.2,0-0.3,0-0.4,0.2c-0.1,0-0.1,0-0.2,0c-0.4,0-0.8-0.1-1.1,0.2c-0.4,0-0.7-0.1-1.1,0.2
		c-0.4,0-0.9-0.1-1.3,0.2c-0.1,0-0.1,0-0.2,0c-0.3,0-0.6-0.1-0.9,0.2c-0.2,0-0.5,0-0.6,0.2c-0.2,0-0.3,0-0.4,0.2
		c-0.1,0-0.1,0-0.2,0.1c-0.2,0-0.3,0-0.5,0.2c-0.2,0-0.5,0-0.6,0.2c-0.4,0-0.7-0.1-1.1,0.2c-0.1,0-0.1,0-0.2,0c-1.1,0-2.3,0-3.4,0
		c-0.2-0.1-0.3-0.1-0.5-0.2c-0.2-0.2-0.4-0.2-0.6,0.1c-0.3,0.3-0.6,0.7-0.9,1c-0.9,0.8-1.5,1.7-2,2.8c-0.5,1.2-0.5,1.2,0.8,1.4
		c0.1,0.1,0.2,0.2,0.4,0.2c0.7,0,1.4,0,2,0c0.1,0,0.2-0.1,0.4-0.2l0,0c0.3,0,0.5,0,0.8,0c0.1,0,0.1,0.1,0.2,0.1c0.7,0,1.3-0.1,2-0.1
		c0.1,0,0.2-0.1,0.4-0.2c-0.3,0-0.6,0-0.9,0c0.3,0,0.6,0,0.9,0c0.4,0,0.8,0,1.2,0c0.1,0.2,0.3,0.2,0.4,0c0.3,0,0.5,0,0.8,0.1
		c0.2,0.2,0.4,0.2,0.7,0.2c0.4,0.2,0.9,0.3,1.3,0.5C31.9,236,33.6,236.8,35.3,237.6z M36.3,227.4C36.3,227.4,36.3,227.4,36.3,227.4
		c-0.1,0.1-0.2,0.2-0.3,0.2C36.1,227.5,36.2,227.5,36.3,227.4z"/>
</g>
</svg>
