<svg width="18" height="26" viewBox="0 0 18 26" fill="none" xmlns="http://www.w3.org/2000/svg" xmlns:xlink="http://www.w3.org/1999/xlink">
<path d="M15.612,2.695C17.452,5.044 18.187,7.33 17.96,10.296C16.974,15.476 13.361,20.442 10.063,24.444C9.778,24.796 9.494,25.148 9.209,25.5C8.562,25.22 8.186,24.945 7.755,24.392C7.646,24.252 7.537,24.112 7.424,23.968C7.309,23.816 7.194,23.664 7.075,23.507C6.954,23.348 6.832,23.189 6.707,23.025C3.283,18.469 -0.378,13.234 0.032,7.34C0.449,5.145 1.64,3.187 3.393,1.771C7.193,-0.777 12.295,-0.666 15.612,2.695ZM5.837,6.998C5.178,7.879 5.278,8.817 5.367,9.874C5.727,10.923 6.334,11.624 7.288,12.197C8.243,12.635 8.989,12.683 9.996,12.382C11.042,11.974 11.735,11.506 12.371,10.574C12.784,9.434 12.784,8.449 12.397,7.301C11.74,6.357 10.959,5.594 9.85,5.229C7.994,5.108 7.016,5.574 5.837,6.998Z" fill="#15A5DF"/>
</svg>
